<?xml version="1.0" encoding="iso-8859-1"?>
<!-- Generator: Adobe Illustrator 19.0.0, SVG Export Plug-In . SVG Version: 6.00 Build 0)  -->
<svg version="1.1" id="Capa_1" xmlns="http://www.w3.org/2000/svg" xmlns:xlink="http://www.w3.org/1999/xlink" x="0px" y="0px"
	 viewBox="0 0 480 480" style="enable-background:new 0 0 480 480;" xml:space="preserve">
<g>
	<g>
		<path d="M360,168h48c8.837,0,16-7.163,16-16V56c0-8.837-7.163-16-16-16h-48c-8.837,0-16,7.163-16,16v40h-16V16
			c0-8.837-7.163-16-16-16H168c-8.837,0-16,7.163-16,16v80h-16V56c0-8.837-7.163-16-16-16H72c-8.837,0-16,7.163-16,16v96
			c0,8.837,7.163,16,16,16h48c8.837,0,16-7.163,16-16v-40h16v80h-16v16h16v80h-16v16h16v80h-16v-40c0-8.837-7.163-16-16-16H72
			c-8.837,0-16,7.163-16,16v96c0,8.837,7.163,16,16,16h48c8.837,0,16-7.163,16-16v-40h16v80h16v-80h32.8
			c4.396,21.65,25.51,35.636,47.16,31.24c15.741-3.196,28.044-15.499,31.24-31.24H312v80h16v-80h16v40c0,8.837,7.163,16,16,16h48
			c8.837,0,16-7.163,16-16v-96c0-8.837-7.163-16-16-16h-48c-8.837,0-16,7.163-16,16v40h-16v-80.336h15v-16h-15V208h16v-16h-16v-80
			h16v40C344,160.837,351.163,168,360,168z M360,56h48v96h-48V56z M120,152H72V56h48V152z M120,440H72v-96h48V440z M168,16h20.688
			L168,36.688V16z M200.8,384H168V112h49.472c2.42,6.775,7.753,12.108,14.528,14.528V200c-8.837,0-16,7.163-16,16v72
			c0,8.837,7.163,16,16,16v48.8C216.302,356.036,204.036,368.302,200.8,384z M248,216v72h-16v-72H248z M232,104c0-4.418,3.582-8,8-8
			s8,3.582,8,8s-3.582,8-8,8S232,108.418,232,104z M240,416c-13.255,0-24-10.745-24-24s10.745-24,24-24s24,10.745,24,24
			S253.255,416,240,416z M312,384h-32.8c-3.236-15.698-15.502-27.964-31.2-31.2V304c8.837,0,16-7.163,16-16v-72
			c0-8.837-7.163-16-16-16v-73.472c6.776-2.42,12.108-7.753,14.528-14.528H312V384z M312,96h-49.472
			c-4.335-12.442-17.935-19.014-30.376-14.68c-6.877,2.396-12.284,7.802-14.68,14.68H168V59.312L211.312,16H232v16h16V16h28.248
			L312,58.904V96z M312,33.896L297.088,16H312V33.896z M360,344h48v96h-48V344z"/>
	</g>
</g>
<g>
</g>
<g>
</g>
<g>
</g>
<g>
</g>
<g>
</g>
<g>
</g>
<g>
</g>
<g>
</g>
<g>
</g>
<g>
</g>
<g>
</g>
<g>
</g>
<g>
</g>
<g>
</g>
<g>
</g>
</svg>
