<?xml version="1.0" encoding="utf-8"?>
<!-- Generator: Adobe Illustrator 25.0.0, SVG Export Plug-In . SVG Version: 6.00 Build 0)  -->
<svg version="1.1" id="Illustration" xmlns="http://www.w3.org/2000/svg" xmlns:xlink="http://www.w3.org/1999/xlink" x="0px"
	 y="0px" viewBox="0 0 3710 3710" style="enable-background:new 0 0 3710 3710;" xml:space="preserve">
<style type="text/css">
	.st0{fill:#F4F7FA;}
	.st1{fill:#97A6B7;}
	.st2{fill:#FFFFFF;}
	.st3{opacity:0.3;fill:#97A6B7;}
	.st4{opacity:0.5;fill:#97A6B7;}
	.st5{opacity:0.1;fill:#97A6B7;}
	.st6{fill:url(#SVGID_1_);}
	.st7{opacity:0.3;}
	.st8{opacity:0.5;clip-path:url(#SVGID_4_);}
	.st9{opacity:0.5;clip-path:url(#SVGID_7_);}
	.st10{fill:#D8DEE8;}
	.st11{fill:#707C87;}
	.st12{opacity:0.7;clip-path:url(#SVGID_10_);}
	.st13{fill:#FCFDFE;}
	.st14{opacity:0.5;clip-path:url(#SVGID_13_);}
	.st15{fill:url(#SVGID_14_);}
	.st16{fill:url(#SVGID_15_);}
	.st17{fill:url(#SVGID_16_);}
	.st18{fill:url(#SVGID_17_);}
	.st19{fill:url(#SVGID_18_);}
	.st20{fill:url(#SVGID_19_);}
	.st21{fill:url(#SVGID_20_);}
	.st22{fill:url(#SVGID_21_);}
	.st23{fill:url(#SVGID_22_);}
	.st24{fill:url(#SVGID_23_);}
	.st25{fill:url(#SVGID_24_);}
	.st26{fill:url(#SVGID_25_);}
	.st27{fill:url(#SVGID_26_);}
	.st28{fill:url(#SVGID_27_);}
	.st29{fill:url(#SVGID_28_);}
	.st30{fill:url(#SVGID_29_);}
	.st31{fill:url(#SVGID_30_);}
	.st32{fill:url(#SVGID_31_);}
	.st33{fill:url(#SVGID_32_);}
	.st34{fill:url(#SVGID_33_);}
	.st35{opacity:0.8;fill:url(#SVGID_34_);}
	.st36{fill:url(#SVGID_35_);}
	.st37{fill:url(#SVGID_36_);}
	.st38{fill:url(#SVGID_37_);}
	.st39{fill:url(#SVGID_38_);}
	.st40{opacity:0.3;fill:#FFFFFF;}
	.st41{fill:#808080;}
	.st42{fill:url(#SVGID_39_);}
	.st43{fill:url(#SVGID_40_);}
	.st44{fill:url(#SVGID_41_);}
	.st45{fill:url(#SVGID_42_);}
	.st46{fill:url(#SVGID_43_);}
	.st47{fill:url(#SVGID_44_);}
	.st48{fill:url(#SVGID_45_);}
	.st49{fill:url(#SVGID_46_);}
	.st50{fill:url(#SVGID_47_);}
	.st51{fill:url(#SVGID_48_);}
	.st52{fill:url(#SVGID_49_);}
	.st53{fill:url(#SVGID_50_);}
	.st54{fill:url(#SVGID_51_);}
	.st55{fill:#2C3A4F;}
	.st56{fill:url(#SVGID_52_);}
	.st57{fill:#94489B;}
	.st58{fill:url(#SVGID_53_);}
</style>
<g>
	<path class="st0" d="M1348.58,514.72c211.6-47.21,431.6-69.83,646.7-55.41c190.65,12.78,406.76,47.67,560.18,172.65
		c73.11,59.56,160.31,166.58,184.22,260.99c0,0.01,125.89,496.95,377.65,603.44c251.77,106.49,426.6,1923.91-1482.62,1746.43
		c0,0-1121.37-46.51-1188.89-1386.11c-16.31-323.61-7.2-679.36,188.2-949.95c149.73-207.35,359.53-299.55,600.6-364.06
		C1272.28,532.61,1310.29,523.26,1348.58,514.72z"/>
	<g>
		<g>
			<polygon class="st1" points="2406.37,688.14 2406.37,2080.17 2532.33,2038 2532.33,820.33 2417.78,700.12 2407.81,689.64 			"/>
			<rect x="2056.27" y="686.77" class="st2" width="350.09" height="1393.4"/>
			<rect x="2295.23" y="840.67" class="st3" width="44.46" height="1148"/>
			<rect x="2200.76" y="840.67" class="st3" width="46.31" height="1148"/>
			<rect x="2108.14" y="840.67" class="st3" width="46.31" height="1148"/>
			<rect x="2295.23" y="840.67" class="st4" width="14.82" height="1148"/>
			<rect x="2200.76" y="840.67" class="st4" width="14.82" height="1148"/>
			<rect x="2106.29" y="840.67" class="st4" width="14.82" height="1148"/>
			<path class="st5" d="M2056.27,2080.09v0.08h350.09l125.96-42.18v-141.63c-58.35-157.72-39.14-223.32-51.74-340.32
				c-12.3-114.22,13.65-716.04-62.81-855.93c-2.76-5.12-5.65-9.57-8.69-13.35c-0.43,0.96-0.85,1.91-1.28,2.87
				c-0.48,1.08-0.96,2.16-1.44,3.24c-39.79,89.39-58.02,132.06-66.68,177.44c-8.45,44.22-7.82,90.97-9.19,186.01
				c-1.7,116.88-1.35,218.58-20.45,288.58c-4,14.77-8.87,28.08-14.82,39.85c-11.54,22.92-27.1,39.93-48.16,49.87
				c-2.33,1.12-4.72,2.16-7.19,3.08c-8.21,3.08-16.32,7.9-24.3,14.27c-5,3.95-9.95,8.53-14.82,13.73
				c-16.36,17.26-31.97,40.97-46.31,69.8c-12.11,24.33-23.32,52.28-33.34,83.02c-4.58,14.06-8.91,28.7-12.97,43.88
				c-0.63,2.33-1.24,4.66-1.85,7.03c-22.67,87.51-36.12,191.29-34.94,296.94C2071.87,2012.37,2066.09,2049.39,2056.27,2080.09z"/>
		</g>
		<g>
			<polygon class="st1" points="2181.54,1376.28 2181.54,2080.17 2280.59,2058.85 2280.59,1443.12 2190.51,1382.34 2182.67,1377.04 
							"/>
			<rect x="1906.24" y="1375.58" class="st0" width="275.29" height="704.59"/>
			<rect x="2094.14" y="1453.4" class="st1" width="34.96" height="580.5"/>
			<rect x="2019.86" y="1453.4" class="st1" width="36.41" height="580.5"/>
			<rect x="1947.03" y="1453.4" class="st1" width="36.41" height="580.5"/>
			<rect x="2094.14" y="1453.4" class="st4" width="11.65" height="580.5"/>
			<rect x="2019.86" y="1453.4" class="st4" width="11.65" height="580.5"/>
			<rect x="1945.57" y="1453.4" class="st4" width="11.65" height="580.5"/>
			<path class="st5" d="M1906.24,2080.13v0.04h275.29l99.05-21.33v-71.62c-45.88-79.76-30.78-112.92-40.68-172.09
				c-9.67-57.76,10.73-362.07-49.39-432.81c-2.17-2.59-4.44-4.84-6.83-6.75c-0.33,0.48-0.67,0.97-1.01,1.45
				c-0.38,0.55-0.76,1.09-1.14,1.64c-31.29,45.2-45.62,66.78-52.44,89.72c-6.64,22.36-6.15,46-7.22,94.06
				c-1.34,59.1-1.06,110.53-16.08,145.92c-3.15,7.47-6.98,14.2-11.65,20.15c-9.07,11.59-21.31,20.19-37.87,25.22
				c-1.84,0.57-3.71,1.09-5.65,1.56c-6.45,1.56-12.83,4-19.11,7.21c-3.93,2-7.82,4.31-11.65,6.94
				c-12.86,8.73-25.14,20.72-36.41,35.29c-9.53,12.3-18.34,26.44-26.22,41.98c-3.6,7.11-7.01,14.51-10.2,22.19
				c-0.5,1.18-0.98,2.36-1.46,3.55c-17.83,44.25-28.4,96.73-27.47,150.15C1918.51,2045.89,1913.96,2064.61,1906.24,2080.13z"/>
		</g>
		<g>
			
				<linearGradient id="SVGID_1_" gradientUnits="userSpaceOnUse" x1="-1114.5966" y1="1559.6188" x2="-692.188" y2="1559.6188" gradientTransform="matrix(-1 0 0 1 1526.4933 0)">
				<stop  offset="0.494" style="stop-color:#EBEFF2"/>
				<stop  offset="1" style="stop-color:#FFFFFF"/>
			</linearGradient>
			<rect x="2218.68" y="1039.06" class="st6" width="422.41" height="1041.11"/>
			<rect x="2250.73" y="1137.92" class="st3" width="358.32" height="65.2"/>
			<rect x="2250.73" y="1253.6" class="st3" width="358.32" height="65.2"/>
			<rect x="2250.73" y="1369.27" class="st3" width="358.32" height="65.2"/>
			<rect x="2250.73" y="1484.95" class="st3" width="358.32" height="65.2"/>
			<rect x="2250.73" y="1600.63" class="st3" width="358.32" height="65.2"/>
			<rect x="2250.73" y="1716.31" class="st3" width="358.32" height="65.2"/>
			<rect x="2250.73" y="1831.99" class="st3" width="358.32" height="65.2"/>
			<polygon class="st1" points="2641.09,1039.06 2641.09,2080.17 2754.7,2080.17 2754.7,1137.92 2644.38,1041.92 2641.56,1039.46 
							"/>
			<rect x="2719.75" y="1295.66" class="st4" width="69.92" height="14.72"/>
			<rect x="2719.75" y="1478.64" class="st4" width="69.92" height="14.72"/>
			<rect x="2719.75" y="1661.63" class="st4" width="69.92" height="14.72"/>
			<rect x="2719.75" y="1844.61" class="st4" width="69.92" height="14.72"/>
			<rect x="2250.73" y="1137.92" class="st4" width="358.32" height="12.62"/>
			<rect x="2250.73" y="1253.6" class="st4" width="358.32" height="12.62"/>
			<rect x="2250.73" y="1369.27" class="st4" width="358.32" height="12.62"/>
			<rect x="2250.73" y="1484.95" class="st4" width="358.32" height="12.62"/>
			<rect x="2250.73" y="1600.63" class="st4" width="358.32" height="12.62"/>
			<rect x="2250.73" y="1716.31" class="st4" width="358.32" height="12.62"/>
			<rect x="2250.73" y="1831.99" class="st4" width="358.32" height="12.62"/>
			<path class="st5" d="M2232.71,2080.17h408.38l113.61-31.55v-201.68c-4.47-12.58-9.26-24.52-14.39-35.52
				c-47.88-102.81-32.29-144.6-42.31-219.83c-9.89-74.27,11.68-472.64-53.62-549.66c-0.86-1.01-1.72-1.96-2.61-2.86
				c-0.07,0.13-0.15,0.27-0.22,0.4c-0.16,0.29-0.32,0.57-0.47,0.84c-25.77,46.78-40.32,73.76-48.66,97.61
				c-1.5,4.27-2.8,8.45-3.9,12.62c-4.28,15.84-6.1,31.61-7.05,52.58c-0.61,13.99-0.86,30.29-1.17,50.48
				c-0.06,4.04-0.13,8.24-0.2,12.62c-0.04,2.52-0.09,5.11-0.13,7.74c-0.28,15.4-0.48,30.37-0.77,44.84
				c-0.35,17.63-0.83,34.51-1.69,50.48c-0.23,4.27-0.5,8.48-0.79,12.62c-1.35,19.12-3.42,36.74-6.73,52.58
				c-4.12,19.9-10.18,36.91-19.21,50.48c-3.06,4.63-6.47,8.83-10.27,12.62c-8.52,8.52-18.96,14.87-31.8,18.78
				c-16.2,4.92-31.99,16.68-46.7,33.8c-11.75,13.65-22.81,30.73-32.85,50.48c-2.07,4.08-4.11,8.31-6.09,12.62
				c-7.43,16.15-14.19,33.78-20.12,52.58c-5.07,16.05-9.53,32.96-13.28,50.48c-0.9,4.16-1.75,8.37-2.56,12.62
				c-3.28,17.06-5.88,34.66-7.72,52.58c-1.72,16.59-2.8,33.46-3.13,50.48c-0.09,4.19-0.13,8.39-0.13,12.62
				c0,2.59,0.01,5.17,0.06,7.78c0.23,16.7-1.15,31.53-3.82,44.8C2351.27,2002.48,2249.62,2010.72,2232.71,2080.17z"/>
		</g>
		<g>
			<rect x="2903.36" y="1294.22" class="st4" width="71.37" height="14.72"/>
			<rect x="2903.36" y="1477.21" class="st4" width="71.37" height="14.72"/>
			<rect x="2903.36" y="1660.19" class="st4" width="71.37" height="14.72"/>
			<g>
				<polygon class="st1" points="3047.48,1194.7 3047.48,2080.17 3161.09,2053.34 3161.09,1278.77 				"/>
				<rect x="2692.07" y="1196.81" class="st2" width="355.41" height="883.37"/>
				<g class="st7">
					<rect x="2913.47" y="1301.97" class="st1" width="69.92" height="138.81"/>
					<rect x="2815.88" y="1301.97" class="st1" width="71.37" height="138.81"/>
					<rect x="2719.75" y="1301.97" class="st1" width="69.92" height="138.81"/>
					<rect x="2913.47" y="1484.95" class="st1" width="69.92" height="138.81"/>
					<rect x="2815.88" y="1484.95" class="st1" width="71.37" height="138.81"/>
					<rect x="2719.75" y="1484.95" class="st1" width="69.92" height="138.81"/>
					<rect x="2913.47" y="1667.94" class="st1" width="69.92" height="138.81"/>
					<rect x="2815.88" y="1667.94" class="st1" width="71.37" height="138.81"/>
					<rect x="2719.75" y="1667.94" class="st1" width="69.92" height="138.81"/>
					<rect x="2913.47" y="1850.92" class="st1" width="69.92" height="138.81"/>
					<rect x="2815.88" y="1850.92" class="st1" width="71.37" height="138.81"/>
					<rect x="2719.75" y="1850.92" class="st1" width="69.92" height="138.81"/>
				</g>
				<rect x="2913.47" y="1301.97" class="st4" width="69.92" height="14.72"/>
				<rect x="2913.47" y="1484.95" class="st4" width="69.92" height="14.72"/>
				<rect x="2913.47" y="1667.94" class="st4" width="69.92" height="14.72"/>
				<rect x="2913.47" y="1850.92" class="st4" width="69.92" height="14.72"/>
				<path class="st5" d="M2692.07,2065.51v14.66h355.41l113.61-26.84v-131.07c-7.6-27.95-16.78-55.17-27.67-77.65
					c-41.76-86.23-28.16-121.29-36.9-184.39c-8.74-63.1,10.68-405.21-49.04-463.41c-55.83,97.44-51.96,93.24-53.89,197.01
					c-1.03,55.51-0.96,104.59-10.2,141.04c-8.01,31.67-23.06,53.78-51.96,62.26c-6.07,1.79-12.08,4.63-17.96,8.43
					c-18.79,12.09-36.46,33.95-51.43,62.38c-19.69,37.33-34.8,86-41.83,138.81c-1.94,14.45-3.26,29.23-3.9,44.17
					c-0.22,4.96-0.36,9.97-0.42,14.98c-0.06,4.35-0.06,8.71,0,13.06c0.03,1.54,0.03,3.05,0,4.54
					c-0.28,37.73-11.06,63.75-26.22,83.71c-6.42,8.46-13.63,15.82-21.18,22.53C2738.35,2016.53,2703.01,2032.7,2692.07,2065.51z"/>
			</g>
		</g>
	</g>
	<g>
		<g>
			<g>
				<defs>
					<path id="SVGID_2_" d="M1692.58,1783.15c63.9-43.22,150.77-116.13,203.12-230.52c68.66-150.01,17.63-239.56,67.42-504.19
						c31.48-167.32,55.14-283.78,149.91-332.9c74.27-38.5,183.32-31.04,241.25,24.96c48.17,46.56,66.64,132.14,67,191.17
						c0.29,48.11-11.43,81.13,11.63,110.14c23.56,29.65,55.65,20.15,78.47,42.97c46.27,46.28-4.15,166.94-12.3,186.44
						c-90.66,216.92-322.97,335.78-424.93,386.4C1989.83,1699.48,1861.28,1752.66,1692.58,1783.15z"/>
				</defs>
				<linearGradient id="SVGID_3_" gradientUnits="userSpaceOnUse" x1="1692.5778" y1="1237.3423" x2="2530.6672" y2="1237.3423">
					<stop  offset="0" style="stop-color:#D1D3FF"/>
					<stop  offset="0.9964" style="stop-color:#9082F3"/>
				</linearGradient>
				<use xlink:href="#SVGID_2_"  style="overflow:visible;fill:url(#SVGID_3_);"/>
				<clipPath id="SVGID_4_">
					<use xlink:href="#SVGID_2_"  style="overflow:visible;"/>
				</clipPath>
				<g class="st8">
					<g>
						<path class="st2" d="M1622.58,1815.43l-1.26-6.1c179.8-37.24,410.81-121.17,490.24-309.55
							c29.21-69.27,34.93-145.04,42.84-249.92c6.32-83.75,3.25-143.67,0.53-196.54c-3.55-69.19-6.35-123.84,13.8-199.3
							c20.45-76.56,58.51-149.82,113.12-217.74l4.86,3.91c-54.07,67.24-91.74,139.72-111.96,215.44
							c-19.9,74.51-17.12,128.73-13.6,197.37c2.72,53.06,5.81,113.19-0.54,197.32c-7.66,101.51-13.71,181.68-43.32,251.88
							c-37.87,89.8-113.85,164.62-225.84,222.38C1815.86,1763.57,1725.4,1794.13,1622.58,1815.43z"/>
					</g>
					<g>
						<path class="st2" d="M2162.02,1192.24l-2.96-1.9c-0.51-0.33-51.76-33.61-97.76-99.13c-42.46-60.47-89.11-161.63-70.26-300.08
							l6.18,0.84c-18.57,136.46,27.37,236.1,69.19,295.66c39.04,55.61,81.73,87.52,93.11,95.48
							c69.19-142.03,164.41-222.84,232.35-265.7c74.26-46.84,133.04-59.77,133.62-59.9l1.31,6.1
							c-0.58,0.12-58.48,12.89-131.85,59.23c-67.69,42.75-162.78,123.63-231.39,266.23L2162.02,1192.24z"/>
					</g>
					<g>
						<path class="st2" d="M2137.78,1417.83l-0.97-2.05c-0.41-0.88-42.08-88.77-101.09-168.69
							c-58.6-79.38-217.79-129.22-219.39-129.72l1.84-5.96c6.62,2.04,162.76,50.96,222.57,131.97
							c54.34,73.6,94.05,153.89,100.72,167.68c179.29-25.63,425.68-396.16,428.16-399.91l5.2,3.43
							c-0.63,0.95-63.5,95.87-147.94,192.4c-113.69,129.97-210.2,200.81-286.86,210.56L2137.78,1417.83z"/>
					</g>
					<g>
						<path class="st2" d="M1919.55,1708.58l3.91-4.83c55.78-68.81,62.17-149.45,18.98-239.69
							c-32.35-67.59-81.85-115.33-82.35-115.81l4.31-4.51c0.5,0.48,50.83,49.02,83.66,117.62c42.67,89.15,37.16,172.46-15.85,241.36
							c21.3,0.29,95.44-0.17,190.54-17.15c103.88-18.55,254.74-61.18,383.55-158.91l250.4-189.99l3.77,4.97l-250.4,189.99
							c-129.84,98.52-281.78,141.44-386.38,160.11c-113.3,20.21-197.09,17.11-197.92,17.07L1919.55,1708.58z"/>
					</g>
				</g>
			</g>
		</g>
		<g>
			<g>
				<defs>
					<path id="SVGID_5_" d="M1888.05,1840.14c119.73,22.38,275.45,33.81,433.74-6.05c40.39-10.17,289.93-73.02,281.59-183.03
						c-2.94-38.75-35.39-50.62-40.23-102.36c-5.73-61.31,36.17-83.87,74.67-152.07c22.97-40.69,90.21-159.77,26.74-243.82
						c-37.93-50.23-120.81-85.67-189.38-82.15c-100.58,5.16-150.68,93.15-232.86,243.49c-72.85,133.27-66.95,170.27-121.09,265.32
						C2081.06,1650.01,2012.27,1744.71,1888.05,1840.14z"/>
				</defs>
				<linearGradient id="SVGID_6_" gradientUnits="userSpaceOnUse" x1="2508.8738" y1="1048.6295" x2="2233.5264" y2="1787.7211">
					<stop  offset="0" style="stop-color:#4B37FF"/>
					<stop  offset="1" style="stop-color:#8353FB"/>
				</linearGradient>
				<use xlink:href="#SVGID_5_"  style="overflow:visible;fill:url(#SVGID_6_);"/>
				<clipPath id="SVGID_7_">
					<use xlink:href="#SVGID_5_"  style="overflow:visible;"/>
				</clipPath>
				<g class="st9">
					<g>
						<path class="st2" d="M1870.47,1843.81c-40,9.81-80.71,15.95-122.1,18.38c-126.81,7.45-254.9-18.67-380.71-77.63l2.65-5.64
							c124.86,58.52,251.94,84.44,377.7,77.05c450-26.44,694.72-488.08,759.01-628.94c36.46-79.88,49.01-173.34,37.31-277.79
							l6.19-0.69c11.82,105.59-0.91,200.15-37.84,281.07c-52.94,116-147.11,282.96-295.06,419.54
							C2110.11,1748.39,1993.76,1813.56,1870.47,1843.81z"/>
					</g>
					<g>
						<path class="st2" d="M2382.55,1454.76l-1.35-2.46c-1.05-1.91-103.86-192.79-22.18-368.18l5.65,2.63
							c-75.35,161.78,9.01,337.23,20.69,360.06c283.15-119.49,314.58-308.51,317.46-363.74c0.08-1.53,0.15-2.49,0.22-2.83l6.13,1.1
							c-0.04,0.32-0.07,1.01-0.13,2.06c-2.93,56.31-34.94,249.44-323.91,370.27L2382.55,1454.76z"/>
					</g>
					<g>
						<path class="st2" d="M2509.7,1669.53c-66.51,16.32-164.28,21.14-292.74-22l-1.58-0.53l-0.44-1.61
							c-0.43-1.59-42.5-161.15,8.55-358.57l51.44-198.91l6.04,1.56l-51.44,198.91c-47.89,185.19-13.22,336.65-8.98,353.77
							c150.64,50.22,258.2,33.77,321.98,11.06c69.12-24.61,102.86-61.48,103.19-61.85l4.63,4.17c-1.4,1.56-35.14,38.41-105.74,63.55
							C2534.15,1662.82,2522.5,1666.39,2509.7,1669.53z"/>
					</g>
				</g>
			</g>
		</g>
	</g>
	<g>
		<g>
			<path class="st1" d="M2239.76,2537.46c0,23.08-17.53,42.69-39.19,43.82l-1377.08,71.53c-25.28,1.31-45.83-17.9-45.83-42.91
				V566.83c0-25.01,20.55-44.03,45.83-42.49l18.45-0.99l1358.64,85c21.67,1.32,39.19,21.1,39.19,44.17V2537.46z"/>
			<path class="st10" d="M2266.89,2536.51c0,23.08-17.52,42.69-39.19,43.82l-1377.08,71.53c-25.28,1.31-45.83-17.9-45.83-42.91
				V565.88c0-25.01,20.55-44.03,45.83-42.49l1377.08,84.02c21.67,1.32,39.19,21.1,39.19,44.17V2536.51z"/>
			<path class="st10" d="M1207.87,715.47c-34.23,44.01-39.12,127.13,19.56,161.36c127.13,78.24,293.38,53.79,415.63-29.34
				c89.97-62.98,51.65-179.74,25.91-274.17l-270.84-16.52C1374.82,621.93,1250.8,658.24,1207.87,715.47z"/>
			<path class="st2" d="M2202.12,2454.73c0,20.43-15.57,37.72-34.82,38.62l-1246.89,58.36c-22.13,1.04-40.11-15.94-40.11-37.91
				V764.97c0-21.97,17.98-38.88,40.11-37.77l1246.89,62.82c19.25,0.97,34.82,18.32,34.82,38.75V2454.73z"/>
			<path class="st11" d="M1860.27,734.4c-1.86-10.72-10.22-18.3-20.84-18.87l-65.62-3.52c-29.66-1.59-51.1-26.32-49.7-57.4
				l3.26-71.99c0.6-13.31-8.59-23.98-21.36-24.78l-21.18-1.32c-16.12-1-27.14-15.43-24.6-32.23c4.5-29.72-15.04-55.36-43.72-57.28
				c-28.77-1.92-55.83,20.74-60.36,50.64c-1.23,8.12-5.52,15.7-11.94,21.09c-6.43,5.39-14.46,8.15-22.33,7.66l-21.62-1.34
				c-13.08-0.81-25.62,8.65-29.09,21.98l-18.78,72.15c-8.12,31.19-37.56,53.55-68.42,51.89l-69.04-3.71
				c-11.27-0.61-22.41,6.15-27.73,16.84l-49.55,99.43l4.26,5.44l635.58,24.72L1860.27,734.4z M1607.14,528.92
				c-8.43-0.53-14.19-8.06-12.87-16.8c1.32-8.74,9.23-15.39,17.66-14.84c8.42,0.55,14.17,8.07,12.85,16.8
				C1623.46,522.81,1615.57,529.46,1607.14,528.92z"/>
			<path class="st1" d="M1864.53,739.84c-1.86-10.72-10.22-18.3-20.84-18.87l-65.62-3.52c-29.66-1.59-51.1-26.32-49.7-57.4
				l3.26-71.99c0.6-13.31-8.59-23.98-21.36-24.78l-21.18-1.32c-16.12-1-27.14-15.43-24.6-32.23c4.5-29.72-15.04-55.36-43.72-57.28
				c-28.77-1.92-55.83,20.74-60.36,50.64c-1.23,8.12-5.52,15.7-11.94,21.09c-6.43,5.39-14.45,8.15-22.33,7.66l-21.62-1.34
				c-13.08-0.81-25.62,8.65-29.09,21.98l-18.78,72.15c-8.12,31.19-37.56,53.55-68.42,51.89l-69.04-3.71
				c-11.27-0.61-22.41,6.15-27.73,16.84l-49.55,99.43l639.84,30.16L1864.53,739.84z M1611.4,534.36c-8.43-0.53-14.2-8.06-12.87-16.8
				c1.32-8.74,9.23-15.39,17.66-14.84c8.42,0.55,14.17,8.07,12.85,16.8C1627.72,528.25,1619.82,534.9,1611.4,534.36z"/>
			<g>
				<g>
					<path class="st10" d="M2112.59,1339.8c0,4.36-2.91,7.82-6.51,7.74l-487.52-10.91c-3.88-0.09-7.03-3.83-7.03-8.36v-98.38
						c0-4.53,3.15-8.1,7.03-7.98l487.52,15.13c3.6,0.11,6.51,3.73,6.51,8.09V1339.8z"/>
					<path class="st10" d="M2112.59,1448.92c0,4.36-2.91,7.85-6.51,7.8l-487.52-6.74c-3.88-0.05-7.03-3.77-7.03-8.3v-27.33
						c0-4.53,3.15-8.14,7.03-8.08l487.52,8.35c3.6,0.06,6.51,3.64,6.51,8V1448.92z"/>
					<path class="st10" d="M2112.59,1548.84c0,4.36-2.91,7.87-6.51,7.85l-487.52-2.92c-3.88-0.02-7.03-3.71-7.03-8.24v-27.33
						c0-4.53,3.15-8.17,7.03-8.13l487.52,4.52c3.6,0.03,6.51,3.59,6.51,7.95V1548.84z"/>
					<path class="st10" d="M2112.59,1648.76c0,4.36-2.91,7.89-6.51,7.9l-487.52,0.91c-3.88,0.01-7.03-3.66-7.03-8.18v-27.33
						c0-4.53,3.15-8.19,7.03-8.19l487.52,0.7c3.6,0.01,6.51,3.54,6.51,7.9V1648.76z"/>
					<path class="st10" d="M2112.59,1748.68c0,4.36-2.91,7.92-6.51,7.95l-487.52,4.73c-3.88,0.04-7.03-3.6-7.03-8.13v-27.33
						c0-4.53,3.15-8.22,7.03-8.24l487.52-3.12c3.6-0.02,6.51,3.49,6.51,7.85V1748.68z"/>
				</g>
				<g>
					<path class="st10" d="M1443.36,1767.21l-408.56,4.09c-15.34,0.15-27.8-13.63-27.8-30.8v-510.06c0-17.16,12.46-30.69,27.8-30.21
						l408.56,12.79c14.42,0.45,26.08,14.26,26.08,30.85v493.04C1469.44,1753.5,1457.78,1767.06,1443.36,1767.21z"/>
					<path class="st10" d="M1033.87,1213.98l0.53,0.01l408.56,12.67c7.94,0.25,14.4,8,14.4,17.29v493.16
						c0,8.94-6.21,16.32-13.93,16.45l-408.55,3.98c-8.59,0.08-15.58-7.65-15.58-17.24v-509.94
						C1019.3,1221.22,1025.7,1214.03,1033.87,1213.98z M1033.87,1200.22c-14.91,0.08-26.87,13.4-26.87,30.22v510.06
						c0,17.16,12.46,30.95,27.8,30.8l408.56-4.09c0.05,0,0.11,0,0.16,0c14.34-0.24,25.92-13.77,25.92-30.3v-493.04
						c0-16.59-11.66-30.4-26.08-30.85l-408.56-12.79C1034.49,1200.22,1034.18,1200.22,1033.87,1200.22z"/>
				</g>
				<g>
					<path class="st10" d="M1278.08,2020.93l-261.33,5.53c-1.75,0.04-3.17-1.52-3.17-3.47v-38.83c0-1.95,1.42-3.56,3.17-3.59
						l261.33-4.67c1.68-0.03,3.05,1.5,3.05,3.41v38.08C1281.13,2019.31,1279.76,2020.89,1278.08,2020.93z"/>
					<path class="st10" d="M1461.09,2108.08l-444.34,12.42c-1.75,0.05-3.17-1.5-3.17-3.45v-38.83c0-1.95,1.42-3.57,3.17-3.61
						l444.34-10.95c1.64-0.04,2.97,1.46,2.97,3.35v37.57C1464.05,2106.47,1462.73,2108.04,1461.09,2108.08z"/>
					<path class="st10" d="M1461.09,2199.12l-444.34,15.44c-1.75,0.06-3.17-1.47-3.17-3.43v-38.83c0-1.95,1.42-3.58,3.17-3.64
						l444.34-13.97c1.64-0.05,2.97,1.44,2.97,3.33v37.57C1464.05,2197.48,1462.73,2199.06,1461.09,2199.12z"/>
					<path class="st10" d="M1461.09,2290.15l-444.34,18.46c-1.75,0.07-3.17-1.45-3.17-3.4v-38.83c0-1.95,1.42-3.59,3.17-3.66
						l444.34-16.99c1.64-0.06,2.97,1.42,2.97,3.31v37.57C1464.05,2288.49,1462.73,2290.08,1461.09,2290.15z"/>
				</g>
				<g>
					<path class="st10" d="M1991.63,2005.82l-377.19,7.98c-1.6,0.03-2.9-1.45-2.9-3.32v-37.16c0-1.87,1.3-3.41,2.9-3.44l377.19-6.73
						c1.51-0.03,2.74,1.42,2.74,3.24v36.08C1994.36,2004.29,1993.14,2005.79,1991.63,2005.82z"/>
					<path class="st10" d="M2103.39,2090.13l-488.95,13.67c-1.6,0.04-2.9-1.43-2.9-3.3v-37.16c0-1.87,1.3-3.42,2.9-3.46
						l488.95-12.05c1.49-0.04,2.69,1.39,2.69,3.19v35.77C2106.08,2088.59,2104.87,2090.08,2103.39,2090.13z"/>
					<path class="st10" d="M2103.39,2176.79l-488.95,16.99c-1.6,0.06-2.9-1.41-2.9-3.28v-37.16c0-1.87,1.3-3.42,2.9-3.47
						l488.95-15.37c1.49-0.05,2.69,1.37,2.69,3.17v35.77C2106.08,2175.24,2104.87,2176.74,2103.39,2176.79z"/>
					<path class="st10" d="M2103.39,2263.46l-488.95,20.32c-1.6,0.07-2.9-1.39-2.9-3.26v-37.16c0-1.87,1.3-3.43,2.9-3.49
						l488.95-18.69c1.49-0.06,2.69,1.36,2.69,3.15v35.77C2106.08,2261.89,2104.87,2263.4,2103.39,2263.46z"/>
				</g>
			</g>
			<path class="st3" d="M1843.7,720.97l-65.62-3.52c-19.69-1.06-35.71-12.35-43.88-28.89c-60.81,12.72-124.87-0.57-188.94,12.24
				c-44.01,9.78-39.12,78.24-88.01,83.13c-70.14,9.48-139.53,10.14-208.2,10.81l-7.14,14.33l639.84,30.16l-17.21-99.39
				C1862.67,729.12,1854.31,721.54,1843.7,720.97z"/>
		</g>
		<g>
			<g>
				<path class="st1" d="M1559.68,1158.11c-63.63-2.55-122.86-19.3-167.06-46.99c-44.83-28.08-69.35-64.36-69.35-102.34
					c0-37.98,24.53-72.94,69.35-98.62c44.21-25.32,103.43-38.89,167.06-38.02c64.39,0.87,125.72,16.41,172.41,43.92
					c48.16,28.38,74.86,65.98,74.86,105.71s-26.7,75.9-74.86,101.69C1685.41,1148.45,1624.08,1160.69,1559.68,1158.11z
					 M1559.68,883.91c-125.46-1.84-225.39,54.33-225.39,125.16c0,70.84,99.93,132.37,225.39,137.26
					c128.45,5.01,235.24-50.97,235.24-124.9C1794.92,947.51,1688.13,885.79,1559.68,883.91z"/>
			</g>
			<g>
				<path class="st1" d="M1449.33,975.88c-8.13-0.19-14.42,2.82-18.87,9.02c-4.45,6.2-6.67,14.93-6.67,26.2
					c0,23.45,8.5,35.43,25.54,35.94c7.17,0.22,15.86-1.38,26.08-4.78v18.79c-8.41,3.35-17.77,4.85-28.1,4.52
					c-14.81-0.47-26.11-5.47-33.92-14.98c-7.8-9.5-11.7-22.9-11.7-40.23c0-10.91,1.91-20.42,5.74-28.53
					c3.83-8.12,9.34-14.29,16.53-18.52c7.2-4.23,15.65-6.24,25.36-6.03c9.91,0.22,19.89,2.91,29.94,8.1l-7.01,18.05
					c-3.83-1.97-7.68-3.7-11.55-5.19C1456.85,976.75,1453.05,975.97,1449.33,975.88z"/>
				<path class="st1" d="M1544.64,1067.22l-24.94-84.03l-0.64-0.02c0.89,16.96,1.34,28.26,1.34,33.92v49.35l-19.54-0.62V959.92
					l29.8,0.65l24.56,81.94l0.43,0.01l26.18-80.83l30.26,0.66v107.01l-20.74-0.66v-50.55c0-2.39,0.04-5.14,0.11-8.25
					c0.07-3.11,0.39-11.39,0.97-24.82l-0.64-0.02l-26.94,82.8L1544.64,1067.22z"/>
				<path class="st1" d="M1664.77,1029.77v41.26l-22.46-0.71V963.01l30.89,0.67c14.46,0.32,25.19,3.22,32.16,8.71
					c6.98,5.5,10.47,13.7,10.47,24.58c0,6.36-1.74,11.96-5.2,16.82c-3.46,4.86-8.36,8.6-14.7,11.23
					c16.09,24.72,26.59,40.73,31.49,47.98l-25.21-0.8l-25.45-42.11L1664.77,1029.77z M1664.77,1011.23l7.26,0.19
					c7.13,0.19,12.4-0.88,15.8-3.2c3.4-2.32,5.11-6.06,5.11-11.22c0-5.11-1.74-8.79-5.22-11.04c-3.47-2.24-8.85-3.45-16.12-3.62
					l-6.83-0.16V1011.23z"/>
			</g>
		</g>
	</g>
	<g>
		<g>
			<g>
				<g>
					<g>
						<defs>
							<path id="SVGID_8_" d="M1263.22,2743.46c2.12,38.12-0.43,69.7-0.09,107.03c145.34-68.89,298.08-108.66,445.57-178.23
								c-164.83-130.48-286.35-167.97-315.52-409.98c-13.69-113.57-7.39-341.42-88.83-424.67
								c-92.79-94.84-162.54-33.12-181.93-143.77c-30.31-172.96-175-310.41-364.99-156.77
								c-187.51,151.63,54.22,729.03,239.82,838.37C1136.54,2500.12,1252.17,2544.41,1263.22,2743.46z"/>
						</defs>
						<linearGradient id="SVGID_9_" gradientUnits="userSpaceOnUse" x1="1689.4548" y1="3079.415" x2="384.6433" y2="823.1815">
							<stop  offset="0" style="stop-color:#D1D3FF"/>
							<stop  offset="0.3138" style="stop-color:#CBFBD1"/>
							<stop  offset="0.9964" style="stop-color:#9082F3"/>
						</linearGradient>
						<use xlink:href="#SVGID_8_"  style="overflow:visible;fill:url(#SVGID_9_);"/>
						<clipPath id="SVGID_10_">
							<use xlink:href="#SVGID_8_"  style="overflow:visible;"/>
						</clipPath>
						<g class="st12">
							<g>
								<path class="st13" d="M1489.32,2738.86l-2.89,1.92c-32.82-49.4-69.93-96.83-105.82-142.69l-13.63-17.43
									c-28.82-36.93-53.95-70.47-76.11-100.07c-12.42-16.58-24.21-32.33-35.75-47.47c-35.28-46.31-60.06-78.66-72.37-94.73
									l-8.13-10.62c-96.7-127.03-181.36-335.2-226.85-447.04c-4.92-12.1-9.32-22.92-13.16-32.2
									c-65.9-159.38-153.56-317.34-260.54-469.46l2.84-2c107.13,152.34,194.91,310.51,260.91,470.13
									c3.84,9.28,8.24,20.1,13.16,32.21c45.42,111.69,129.97,319.59,226.39,446.25l8.12,10.62c12.32,16.08,37.1,48.43,72.38,94.74
									c11.54,15.14,23.34,30.91,35.76,47.49c22.16,29.58,47.27,63.11,76.07,100.01l13.62,17.43
									C1419.27,2641.87,1456.42,2689.35,1489.32,2738.86z"/>
								<path class="st13" d="M1308.68,2505.46l-2.85,1.96c-59.91-86.98-95.24-213.29-102.16-365.26
									c-5.77-126.58,8.89-266.88,40.21-384.94l3.35,0.89C1186.51,1986.93,1179.85,2318.4,1308.68,2505.46z"/>
								<path class="st13" d="M958.37,1898.22l-3.43,0.47c-12.23-90.49-13.09-183.05-13.92-272.57
									c-0.57-61.26-1.16-124.61-5.38-186.77l3.46-0.23c4.23,62.26,4.82,125.66,5.39,186.97
									C945.31,1715.5,946.17,1807.95,958.37,1898.22z"/>
								<path class="st13" d="M1076.9,2168.66c-89.17-90.35-249.54-170.89-343.18-172.36l0.05-3.47
									c94.4,1.47,255.89,82.5,345.59,173.39L1076.9,2168.66z"/>
							</g>
						</g>
					</g>
				</g>
				<g>
					<g>
						<defs>
							<path id="SVGID_11_" d="M1123.41,2345.14c50.94,189.14,158.92,140.92,299.47,85.39c-13.26,181.95-19.48,359.6-25.16,539.91
								c-94.62,35.77-163.05,59.63-224.18-46.88c-69.13-120.46-105.03-192.27-256.52-213.42
								c-151.49-21.14-271.79-123.88-230.93-271.24c43.01-155.07-100.67-344.27,19.45-462.82
								C914.86,1769.49,1070.37,2148.19,1123.41,2345.14z"/>
						</defs>
						<linearGradient id="SVGID_12_" gradientUnits="userSpaceOnUse" x1="814.7569" y1="2100.1343" x2="1605.2911" y2="3401.5574">
							<stop  offset="3.597120e-03" style="stop-color:#716BE3"/>
							<stop  offset="1" style="stop-color:#60BBF6"/>
						</linearGradient>
						<use xlink:href="#SVGID_11_"  style="overflow:visible;fill:url(#SVGID_12_);"/>
						<clipPath id="SVGID_13_">
							<use xlink:href="#SVGID_11_"  style="overflow:visible;"/>
						</clipPath>
						<g class="st14">
							<g>
								<path class="st13" d="M1370.17,2741.59c-152.81-62.67-278.4-119.13-387.84-226.47
									c-104.75-102.73-159.99-217.02-184.7-382.15c-12.8-85.56-31.65-145.42-58.94-226.97l3.29-1.1
									c27.35,81.73,46.24,141.72,59.08,227.56c24.59,164.33,79.53,278.03,183.7,380.19c109,106.89,234.28,163.22,386.73,225.74
									L1370.17,2741.59z"/>
								<path class="st13" d="M1197.61,2991.16l-2.82-2.02c31.69-44.18,66.51-80.66,106.48-111.54
									c20.45-15.8,41.72-26.97,67.36-38.88l1.46,3.15c-25.43,11.81-46.5,22.88-66.7,38.48
									C1263.7,2911.01,1229.1,2947.26,1197.61,2991.16z"/>
								<path class="st13" d="M1052.8,2576.58c-115.29-47.53-255.11-52.01-393.7-12.61l-0.95-3.34
									c139.33-39.61,279.96-35.09,395.97,12.74L1052.8,2576.58z"/>
								<path class="st13" d="M845.71,2307.25l-3.41,0.62c-3.33-18.27,15.11-194.35,20.84-247.89
									c11.86-110.77,26.08-229.87,29.37-237.44l3.18,1.38c-2.73,6.29-16.05,114.57-29.1,236.43
									C854.81,2170.43,843.13,2293.1,845.71,2307.25z"/>
							</g>
						</g>
					</g>
				</g>
			</g>
		</g>
	</g>
	<g>
		<path class="st1" d="M3118.4,2417.74c-8.99,55.04-74.89,112.45-298.12,198.23c-121.66,46.74-461.85,180.12-761.7,278.38
			c-285.57,93.58-392.29,142.19-539.65,184.46c-63.53,18.25-595.31,164.84-848.18-50.48c-94-80.04-154.99-193.48-173.49-325.11
			c1.94-0.43,0.51-44.62,2.45-45.05c784.22-175.87,1396.09-252.03,1381.09-364.7c-4.17-31.57-55.29-61.95-132.25-87.16l4.1-142.98
			c88.39,5.5,169.67,11.09,228.36,16.08c212.86,18.21,622.76,52.79,854.72,133.99c124.81,43.7,226.85,64.71,267.14,98.94
			c14.73,12.51,19.53,49.62,19.14,62.34C3121.27,2398.88,3120.93,2402.18,3118.4,2417.74z"/>
		<path class="st10" d="M3115.08,2361.95c-8.98,54.93-71.49,115.92-294.48,202.18c-121.53,47-461.38,181.12-760.92,280.07
			c-285.3,94.24-391.91,143.07-539.13,185.7c-63.48,18.4-594.79,166.3-847.46-47.81c-93.93-79.59-154.88-192.62-173.37-323.93
			c787.57-176.68,1397.37-300.36,1382.34-413.04c-4.17-31.49-55.24-61.65-132.13-86.58l4.1-142.7
			c88.31,5.22,169.51,10.56,228.15,15.37c212.66,17.54,622.15,50.83,853.88,131.17C3075.01,2245.24,3124.01,2307.12,3115.08,2361.95
			z"/>
		<g>
			<g>
				<path class="st2" d="M758.98,2929.39c-8.33-0.46-15.85-6.09-18.23-14.45c-2.97-10.41,3.14-21.12,13.67-23.94
					c39.65-10.62,79.32-21.41,117.88-32.07c10.66-2.95,21.87,3.14,25.03,13.6c3.16,10.47-2.95,21.34-13.64,24.27
					c-38.76,10.62-78.62,21.36-118.46,31.94C763.14,2929.3,761.04,2929.51,758.98,2929.39z"/>
			</g>
			<g>
				<path class="st2" d="M1160.76,2816.63c-8.53-0.39-16.34-5.8-19.12-14.05c-3.55-10.51,2.43-21.68,13.36-24.95
					c95.02-28.42,189.88-57.89,290.06-90.12c11.23-3.61,23.6,2.03,27.61,12.62c4.02,10.6-1.86,22.12-13.12,25.71
					c-100.73,32.16-196.11,61.56-291.65,89.91C1165.53,2816.46,1163.12,2816.73,1160.76,2816.63z M1750.43,2628.66
					c-8.83-0.29-17.08-5.39-20.42-13.47c-4.4-10.63,1.37-22.41,12.89-26.33c14.37-4.88,28.83-9.81,43.4-14.79
					c85.77-29.32,164.13-61.24,254.08-103.61c11.27-5.31,25.31-1.36,31.36,8.84c6.05,10.21,1.79,22.79-9.52,28.09
					c-91.9,43.06-172,75.5-259.73,105.27c-14.64,4.97-29.17,9.89-43.6,14.75C1756.1,2628.36,1753.23,2628.75,1750.43,2628.66z"/>
			</g>
			<g>
				<path class="st2" d="M2349.49,2365.4c-8.54-0.13-16.76-4.29-20.99-11.43c-6.12-10.33-1.62-23,10.06-28.33
					c45.52-20.77,89.4-39.48,134.14-57.21c12.18-4.83,26.62-0.12,32.24,10.54c5.62,10.67,0.27,23.23-11.96,28.05
					c-44.06,17.35-87.3,35.69-132.17,56.06C2357.2,2364.71,2353.31,2365.46,2349.49,2365.4z"/>
			</g>
		</g>
	</g>
	<g>
		
			<linearGradient id="SVGID_14_" gradientUnits="userSpaceOnUse" x1="-1373.7853" y1="2437.5408" x2="-30.8763" y2="2437.5408" gradientTransform="matrix(-1 0 0 1 1603.2279 0)">
			<stop  offset="0" style="stop-color:#476E8C"/>
			<stop  offset="0.9964" style="stop-color:#2C3A4F"/>
		</linearGradient>
		<path class="st15" d="M2976.58,2241.24l0.43,94.04c0.04,8.73-6.02,16.5-14.04,18l-970.77,173.89l-142.24,106.66l-215.86-248.03
			L2976.58,2241.24z"/>
		
			<linearGradient id="SVGID_15_" gradientUnits="userSpaceOnUse" x1="-648.5211" y1="2504.2241" x2="-387.4289" y2="2504.2241" gradientTransform="matrix(-1 0 0 1 1603.2279 0)">
			<stop  offset="0" style="stop-color:#476E8C"/>
			<stop  offset="0.9964" style="stop-color:#2C3A4F"/>
		</linearGradient>
		<path class="st16" d="M2249.82,2427.31l1.93,89.58c0.16,7.49-5.1,14.35-12.43,16.18l-248.66,62.27l3.36-148.23l239.29-33.86
			C2242.07,2412.02,2249.63,2418.46,2249.82,2427.31z"/>
		<g>
			
				<linearGradient id="SVGID_16_" gradientUnits="userSpaceOnUse" x1="-1315.5341" y1="2349.3142" x2="-1250.8284" y2="2349.3142" gradientTransform="matrix(-1 0 0 1 1603.2279 0)">
				<stop  offset="0" style="stop-color:#1D2B44"/>
				<stop  offset="1" style="stop-color:#5A3776"/>
			</linearGradient>
			<path class="st17" d="M2886.12,2291c0.73-0.05,1.46-0.04,2.18,0l11.44-0.95l-0.03,5.42c11.12,8.54,18.9,28.33,19.04,51.93
				c0.14,24.49-7.99,46.1-19.68,55.78l-0.03,4.35l-12.15,0.99c-17.87,1.45-32.6-23.7-32.84-56.22
				C2853.82,2319.72,2868.2,2292.25,2886.12,2291z"/>
			
				<linearGradient id="SVGID_17_" gradientUnits="userSpaceOnUse" x1="-1329.0576" y1="2348.7395" x2="-1264.5254" y2="2348.7395" gradientTransform="matrix(-1 0 0 1 1603.2279 0)">
				<stop  offset="0" style="stop-color:#1D2B44"/>
				<stop  offset="1" style="stop-color:#5A3776"/>
			</linearGradient>
			<path class="st18" d="M2867.76,2351.26c0.23,32.48,14.91,57.6,32.74,56.15c17.76-1.44,31.97-28.75,31.79-61.03
				c-0.18-32.33-14.72-57.57-32.53-56.33C2881.87,2291.3,2867.53,2318.72,2867.76,2351.26z"/>
			<path class="st10" d="M2886.51,2349.84c0.12,18.22,8.34,32.34,18.35,31.56c9.98-0.79,17.98-16.13,17.87-34.29
				c-0.11-18.17-8.28-32.33-18.28-31.61C2894.43,2316.22,2886.39,2331.6,2886.51,2349.84z"/>
			
				<linearGradient id="SVGID_18_" gradientUnits="userSpaceOnUse" x1="-1265.9312" y1="2353.0623" x2="-1316.8593" y2="2346.2065" gradientTransform="matrix(-1 0 0 1 1603.2279 0)">
				<stop  offset="5.405410e-03" style="stop-color:#D8DEE8"/>
				<stop  offset="1" style="stop-color:#F4F7FA"/>
			</linearGradient>
			<path class="st19" d="M2886.51,2349.84c0.11,16.92,7.1,30.08,15.59,29.41c8.48-0.67,15.26-14.87,15.16-31.74
				c-0.1-16.88-7.06-30.08-15.55-29.46C2893.21,2318.67,2886.4,2332.91,2886.51,2349.84z"/>
		</g>
		<g>
			
				<linearGradient id="SVGID_19_" gradientUnits="userSpaceOnUse" x1="-1242.2112" y1="2367.3809" x2="-1170.2595" y2="2367.3809" gradientTransform="matrix(-1 0 0 1 1603.2279 0)">
				<stop  offset="0" style="stop-color:#1D2B44"/>
				<stop  offset="1" style="stop-color:#5A3776"/>
			</linearGradient>
			<path class="st20" d="M2809.04,2303.06c0.82-0.06,1.63-0.05,2.43-0.01l12.73-1.06l-0.03,5.99c12.38,9.4,21.07,31.23,21.27,57.24
				c0.21,27.01-8.8,50.86-21.77,61.55l-0.02,4.79l-13.5,1.12c-19.87,1.65-36.31-26.06-36.64-61.95
				C2773.16,2334.8,2789.11,2304.47,2809.04,2303.06z"/>
			
				<linearGradient id="SVGID_20_" gradientUnits="userSpaceOnUse" x1="-1257.2366" y1="2366.7283" x2="-1185.4977" y2="2366.7283" gradientTransform="matrix(-1 0 0 1 1603.2279 0)">
				<stop  offset="0" style="stop-color:#1D2B44"/>
				<stop  offset="1" style="stop-color:#5A3776"/>
			</linearGradient>
			<path class="st21" d="M2788.73,2369.58c0.32,35.84,16.7,63.51,36.51,61.86c19.74-1.64,35.48-31.77,35.22-67.37
				c-0.26-35.65-16.46-63.47-36.26-62.08C2804.32,2303.4,2788.41,2333.68,2788.73,2369.58z"/>
			<path class="st10" d="M2809.59,2367.98c0.17,20.1,9.34,35.66,20.46,34.76c11.1-0.89,19.95-17.83,19.8-37.85
				c-0.15-20.04-9.27-35.65-20.38-34.83C2818.33,2330.87,2809.42,2347.86,2809.59,2367.98z"/>
			
				<linearGradient id="SVGID_21_" gradientUnits="userSpaceOnUse" x1="-1187.1134" y1="2371.5308" x2="-1243.6608" y2="2363.9187" gradientTransform="matrix(-1 0 0 1 1603.2279 0)">
				<stop  offset="5.405410e-03" style="stop-color:#D8DEE8"/>
				<stop  offset="1" style="stop-color:#F4F7FA"/>
			</linearGradient>
			<path class="st22" d="M2809.59,2367.98c0.16,18.66,7.95,33.17,17.39,32.41c9.42-0.75,16.94-16.43,16.79-35.03
				c-0.14-18.62-7.9-33.16-17.34-32.47C2816.98,2333.58,2809.43,2349.3,2809.59,2367.98z"/>
		</g>
		<g>
			
				<linearGradient id="SVGID_22_" gradientUnits="userSpaceOnUse" x1="-1162.6975" y1="2379.7163" x2="-1082.8597" y2="2379.7163" gradientTransform="matrix(-1 0 0 1 1603.2279 0)">
				<stop  offset="0" style="stop-color:#1D2B44"/>
				<stop  offset="1" style="stop-color:#5A3776"/>
			</linearGradient>
			<path class="st23" d="M2725.42,2308.95c0.91-0.06,1.8-0.05,2.7-0.01l14.12-1.17l-0.02,6.59c13.75,10.34,23.43,34.34,23.7,62.96
				c0.28,29.71-9.66,55.95-24.03,67.74l-0.01,5.27l-14.98,1.26c-22.05,1.86-40.36-28.6-40.81-68.1
				C2685.65,2343.91,2703.29,2310.51,2725.42,2308.95z"/>
			
				<linearGradient id="SVGID_23_" gradientUnits="userSpaceOnUse" x1="-1179.3544" y1="2378.9824" x2="-1099.7765" y2="2378.9824" gradientTransform="matrix(-1 0 0 1 1603.2279 0)">
				<stop  offset="0" style="stop-color:#1D2B44"/>
				<stop  offset="1" style="stop-color:#5A3776"/>
			</linearGradient>
			<path class="st24" d="M2703.01,2382.18c0.43,39.44,18.67,69.85,40.65,67.99c21.89-1.84,39.27-35.01,38.92-74.15
				c-0.36-39.21-18.38-69.8-40.34-68.25C2720.18,2309.32,2702.58,2342.67,2703.01,2382.18z"/>
			<path class="st10" d="M2726.16,2380.39c0.23,22.12,10.44,39.21,22.77,38.21c12.3-1,22.09-19.64,21.88-41.67
				c-0.21-22.05-10.35-39.2-22.67-38.29C2735.78,2339.55,2725.93,2358.25,2726.16,2380.39z"/>
			
				<linearGradient id="SVGID_24_" gradientUnits="userSpaceOnUse" x1="-1101.6335" y1="2384.3079" x2="-1164.2759" y2="2375.8752" gradientTransform="matrix(-1 0 0 1 1603.2279 0)">
				<stop  offset="5.405410e-03" style="stop-color:#D8DEE8"/>
				<stop  offset="1" style="stop-color:#F4F7FA"/>
			</linearGradient>
			<path class="st25" d="M2726.16,2380.39c0.21,20.53,8.89,36.48,19.36,35.63c10.45-0.85,18.75-18.1,18.56-38.56
				c-0.19-20.48-8.82-36.47-19.29-35.7C2734.3,2342.53,2725.95,2359.83,2726.16,2380.39z"/>
		</g>
		<g>
			
				<linearGradient id="SVGID_25_" gradientUnits="userSpaceOnUse" x1="-775.6253" y1="2469.5815" x2="-665.7283" y2="2469.5815" gradientTransform="matrix(-1 0 0 1 1603.2279 0)">
				<stop  offset="0" style="stop-color:#1D2B44"/>
				<stop  offset="1" style="stop-color:#5A3776"/>
			</linearGradient>
			<path class="st26" d="M2322.32,2376.11c1.25-0.09,2.48-0.09,3.71-0.04l19.43-1.68l0.05,8.71c19.04,13.54,32.61,45.15,33.31,82.94
				c0.73,39.21-12.62,73.97-32.23,89.73l0.04,6.96l-20.59,1.89c-30.34,2.78-55.96-37.22-57.06-89.48
				C2267.89,2422.77,2291.83,2378.37,2322.32,2376.11z"/>
			
				<linearGradient id="SVGID_26_" gradientUnits="userSpaceOnUse" x1="-798.4737" y1="2468.4822" x2="-689.0516" y2="2468.4822" gradientTransform="matrix(-1 0 0 1 1603.2279 0)">
				<stop  offset="0" style="stop-color:#1D2B44"/>
				<stop  offset="1" style="stop-color:#5A3776"/>
			</linearGradient>
			<path class="st27" d="M2292.31,2473.22c1.07,52.14,26.55,92.07,56.77,89.3c30.04-2.75,53.52-46.73,52.59-98.36
				c-0.93-51.75-26.03-91.99-56.22-89.76C2315.1,2376.65,2291.24,2420.95,2292.31,2473.22z"/>
			<path class="st10" d="M2324.19,2470.58c0.58,29.23,14.82,51.68,31.77,50.19c16.89-1.48,30.12-26.21,29.58-55.28
				c-0.53-29.1-14.66-51.66-31.6-50.34C2336.95,2416.48,2323.61,2441.31,2324.19,2470.58z"/>
			
				<linearGradient id="SVGID_27_" gradientUnits="userSpaceOnUse" x1="-691.9692" y1="2475.7729" x2="-777.6207" y2="2464.2429" gradientTransform="matrix(-1 0 0 1 1603.2279 0)">
				<stop  offset="5.405410e-03" style="stop-color:#D8DEE8"/>
				<stop  offset="1" style="stop-color:#F4F7FA"/>
			</linearGradient>
			<path class="st28" d="M2324.19,2470.58c0.54,27.13,12.67,48.08,27.06,46.83c14.35-1.25,25.55-24.14,25.05-51.14
				c-0.5-27.04-12.55-48.07-26.94-46.95C2334.94,2420.44,2323.65,2443.41,2324.19,2470.58z"/>
		</g>
		<g>
			
				<linearGradient id="SVGID_28_" gradientUnits="userSpaceOnUse" x1="-418.5553" y1="2542.8982" x2="-268.1854" y2="2542.8982" gradientTransform="matrix(-1 0 0 1 1603.2279 0)">
				<stop  offset="0" style="stop-color:#1D2B44"/>
				<stop  offset="1" style="stop-color:#5A3776"/>
			</linearGradient>
			<path class="st29" d="M1943.54,2419.67c1.71-0.13,3.4-0.13,5.08-0.07l26.56-2.32l0.17,11.5c26.15,17.75,45.01,59.33,46.35,109.11
				c1.39,51.61-16.46,97.51-43.06,118.51l0.13,9.16l-28.11,2.75c-41.49,4.06-77.06-48.4-79.16-117.4
				C1869.41,2481.67,1901.78,2422.82,1943.54,2419.67z"/>
			
				<linearGradient id="SVGID_29_" gradientUnits="userSpaceOnUse" x1="-449.6755" y1="2541.2944" x2="-300.1651" y2="2541.2944" gradientTransform="matrix(-1 0 0 1 1603.2279 0)">
				<stop  offset="0" style="stop-color:#1D2B44"/>
				<stop  offset="1" style="stop-color:#5A3776"/>
			</linearGradient>
			<path class="st30" d="M1903.49,2548.12c2.04,68.81,37.36,121.13,78.62,117.1c40.96-4.01,72.5-62.13,70.72-130.04
				c-1.78-68.13-36.42-121.01-77.64-117.9C1933.67,2420.41,1901.44,2479.09,1903.49,2548.12z"/>
			<path class="st10" d="M1947.12,2544.34c1.1,38.54,20.82,67.98,43.95,65.83c23.04-2.14,40.81-34.83,39.79-73.09
				c-1.02-38.32-20.52-67.94-43.64-66.08C1964,2472.87,1946.01,2505.74,1947.12,2544.34z"/>
			
				<linearGradient id="SVGID_30_" gradientUnits="userSpaceOnUse" x1="-304.6027" y1="2551.2395" x2="-421.0793" y2="2535.5598" gradientTransform="matrix(-1 0 0 1 1603.2279 0)">
				<stop  offset="5.405410e-03" style="stop-color:#D8DEE8"/>
				<stop  offset="1" style="stop-color:#F4F7FA"/>
			</linearGradient>
			<path class="st31" d="M1947.12,2544.34c1.02,35.78,17.84,63.26,37.49,61.45c19.58-1.81,34.63-32.06,33.67-67.61
				c-0.96-35.62-17.62-63.25-37.26-61.66C1961.29,2478.11,1946.09,2508.5,1947.12,2544.34z"/>
		</g>
		
			<linearGradient id="SVGID_31_" gradientUnits="userSpaceOnUse" x1="-664.2291" y1="1850.8113" x2="-2039.7781" y2="2744.6494" gradientTransform="matrix(-1 0 0 1 1603.2279 0)">
			<stop  offset="0" style="stop-color:#3A8DF9"/>
			<stop  offset="0.9964" style="stop-color:#7496D7"/>
		</linearGradient>
		<path class="st32" d="M3027.44,1732.86c11.64,1.96,20.18,12.93,20.21,25.94l1.38,479.59c0.04,13.8-9.78,25.85-22.4,27.49
			l-888.65,114.8l-19.29-800.86L3027.44,1732.86z"/>
		
			<linearGradient id="SVGID_32_" gradientUnits="userSpaceOnUse" x1="349.6009" y1="1639.1388" x2="-839.2688" y2="2395.1387" gradientTransform="matrix(-1 0 0 1 1603.2279 0)">
			<stop  offset="0" style="stop-color:#3A8DF9"/>
			<stop  offset="0.9964" style="stop-color:#7496D7"/>
		</linearGradient>
		<path class="st33" d="M1532.96,1599.87l585.73-20.06l19.29,800.86l-606.76,44.42l-30.29-791.95
			C1500.25,1615.23,1514.44,1600.5,1532.96,1599.87z"/>
		
			<linearGradient id="SVGID_33_" gradientUnits="userSpaceOnUse" x1="-1445.8074" y1="2039.7257" x2="-584.376" y2="2039.7257" gradientTransform="matrix(-1 0 0 1 1603.2279 0)">
			<stop  offset="0" style="stop-color:#3A8DF9"/>
			<stop  offset="0.9964" style="stop-color:#7496D7"/>
		</linearGradient>
		<path class="st34" d="M2334.86,2171.04c118.03-62.71,228.68,16.64,332.05-70.54c89.17-75.2,59.24-179.47,129.48-306.35
			c16-28.91,37.45-59.27,66.75-88.95l164.31,27.67c11.64,1.96,20.18,12.93,20.21,25.94l1.38,479.59c0.04,13.8-9.78,25.85-22.4,27.49
			l-839.04,108.39C2226.65,2256.64,2281.68,2199.29,2334.86,2171.04z"/>
		<path class="st0" d="M1203.2,2161.5l37.68-103.7l-3.81-85.9l-45.1-7.73c-4.37-0.75-7.35-4.73-6.53-8.76
			c5.18-25.56,24.8-110.37,61.73-139c26.1-20.22,545.26-34.46,545.26-34.46l252.15,11.36c19.84,0.9,35.67,16.07,36.18,34.65
			l14.13,512.88c0.36,13.19-10.31,24.3-24.57,25.6l-168.67,15.31l-32.28,31.36c0,0-473.76,39.92-664.2,10.19
			c-9.86-1.54-17.45-9.26-18.02-18.42l-13.76-220.37C1171.37,2152.2,1203.2,2161.5,1203.2,2161.5z"/>
		
			<linearGradient id="SVGID_34_" gradientUnits="userSpaceOnUse" x1="-491.6818" y1="2103.7532" x2="-74.0086" y2="2103.7532" gradientTransform="matrix(-1 0 0 1 1603.2279 0)">
			<stop  offset="5.405410e-03" style="stop-color:#D8DEE8"/>
			<stop  offset="1" style="stop-color:#F4F7FA"/>
		</linearGradient>
		<path class="st35" d="M1723.86,2185.7c0,0-3.94-222.41-13.07-314.98c-4.45-45.13,18.59-71.95,43.54-87.62
			c23.84-0.74,38.11-1.13,38.11-1.13l252.15,11.36c19.84,0.9,35.67,16.07,36.18,34.65l14.13,512.88
			c0.36,13.19-10.31,24.3-24.57,25.6l-168.67,15.31l-32.28,31.36c0,0-78.36,6.6-184.08,12.44l-8.06-185.88L1723.86,2185.7z"/>
		<path class="st1" d="M1196.09,2462.03l18.27-6.2l-2.15-34.88c-0.58-9.42,7.23-17.15,17.44-17.26l588.32-6.29
			c14.27-0.15,26.23,10.35,26.72,23.44l7.75,208.12c0.42,11.35-9.6,20.51-22.07,20.18l-625.13-16.53
			c-11.7-0.31-21.49-9.01-22.16-19.72l-7.66-121.43C1174.6,2478.32,1182.88,2466.51,1196.09,2462.03z"/>
		
			<linearGradient id="SVGID_35_" gradientUnits="userSpaceOnUse" x1="-24.5087" y1="2424.1443" x2="365.8459" y2="2424.1443" gradientTransform="matrix(-1 0 0 1 1603.2279 0)">
			<stop  offset="0" style="stop-color:#476E8C"/>
			<stop  offset="0.9964" style="stop-color:#2C3A4F"/>
		</linearGradient>
		<path class="st36" d="M1256.54,2281.22l349.94-4.11c11.82-0.14,21.58,9.02,21.25,19.92l-7.71,252.22
			c-0.38,12.54-11.56,22.23-25.29,21.93l-297.85-6.47c-12.98-0.28-24.07-9.48-25.72-21.34l-33.61-241.76
			C1236.04,2290.73,1244.77,2281.36,1256.54,2281.22z"/>
		<g class="st7">
			<path class="st1" d="M1196.09,2462.03l18.27-6.2l-2.15-34.88c-0.46-7.44,4.33-13.81,11.39-16.22l44.81,153.37
				c5.3,18.15,23.22,31.22,43.52,31.76l273.06,7.23c19.62,0.52,36.89-10.74,42.53-27.74l56.61-170.51l0,0l133.84-1.43
				c14.27-0.15,26.23,10.35,26.72,23.44l7.75,208.12c0.42,11.35-9.6,20.51-22.07,20.18l-625.13-16.53
				c-11.7-0.31-21.49-9.01-22.16-19.72l-7.66-121.43C1174.6,2478.32,1182.88,2466.51,1196.09,2462.03z"/>
		</g>
		
			<linearGradient id="SVGID_36_" gradientUnits="userSpaceOnUse" x1="-96.4191" y1="2416.3774" x2="-275.1286" y2="3038.98" gradientTransform="matrix(-1 0 0 1 1603.2279 0)">
			<stop  offset="0" style="stop-color:#4B37FF"/>
			<stop  offset="1" style="stop-color:#8353FB"/>
		</linearGradient>
		<path class="st37" d="M1662.84,2582.38l65.27,2.38c40.55,1.48,74.27-26.67,76.18-63.72l1.5-29.14l-130.98,1.29
			c-8.8,0.09-15.64,6.69-15.28,14.75L1662.84,2582.38z"/>
		
			<linearGradient id="SVGID_37_" gradientUnits="userSpaceOnUse" x1="380.3198" y1="2549.1296" x2="201.7401" y2="3171.2798" gradientTransform="matrix(-1 0 0 1 1603.2279 0)">
			<stop  offset="0" style="stop-color:#4B37FF"/>
			<stop  offset="1" style="stop-color:#8353FB"/>
		</linearGradient>
		<path class="st38" d="M1239.69,2509.76l14.25,64.56c0,0-68.29-1.56-71.55-80.6l42.68,3.87
			C1232.24,2498.24,1238.25,2503.25,1239.69,2509.76z"/>
		
			<linearGradient id="SVGID_38_" gradientUnits="userSpaceOnUse" x1="-174.0219" y1="2072.7524" x2="400.0264" y2="2072.7524" gradientTransform="matrix(-1 0 0 1 1603.2279 0)">
			<stop  offset="0" style="stop-color:#476E8C"/>
			<stop  offset="0.9964" style="stop-color:#2C3A4F"/>
		</linearGradient>
		<path class="st39" d="M1237.07,1971.9l479.9-6.92l26.74-4.73c13.92-2.46,27.14,7.44,27.66,20.72l5.85,148.49
			c0.44,11.17-4.88,21.74-14.32,28.46l-26.51,18.86c-8.13,5.78-18.14,8.89-28.5,8.85l-498.56-1.97l-6.13-22.16L1237.07,1971.9z"/>
		<g>
			<path class="st1" d="M1532.4,1915.66l40.96-0.61c6.21-0.09,11.46,4.55,11.72,10.37l0.75,16.09c0.27,5.81-4.54,10.59-10.73,10.68
				l-40.91,0.6c-6.19,0.09-11.44-4.54-11.72-10.34l-0.78-16.08C1521.41,1920.54,1526.2,1915.75,1532.4,1915.66z"/>
			<path class="st1" d="M1292.5,1919.23l40.79-0.61c6.18-0.09,11.45,4.54,11.77,10.34l0.89,16.06c0.32,5.8-4.42,10.56-10.59,10.65
				l-40.74,0.59c-6.17,0.09-11.44-4.53-11.77-10.32l-0.93-16.05C1281.59,1924.1,1286.32,1919.32,1292.5,1919.23z"/>
		</g>
		<path class="st40" d="M1392.48,2075.32c121.12-45.77,239.99,7.62,290.72-53.09c13.77-16.47,18.75-36.83,19.26-57.05l14.51-0.21
			l26.74-4.73c13.93-2.46,27.14,7.44,27.66,20.72l5.85,148.5c0.44,11.17-4.88,21.74-14.32,28.46l-26.51,18.86
			c-8.13,5.78-18.14,8.89-28.51,8.85l-451.79-1.79C1303.29,2119.24,1353.53,2090.04,1392.48,2075.32z"/>
		<g>
			<path class="st41" d="M1208.06,2185.08l-6.37-23.61l35.75-187.64l1.48-0.03l476.19-10.7l26.27-4.79
				c1.58-0.29,3.19-0.43,4.79-0.43c13.22,0,24.53,9.9,25.22,22.06l8.23,145.58c0.66,11.62-4.83,22.77-14.68,29.83l-26.36,18.88
				c-8.34,5.98-18.86,9.29-29.59,9.32L1208.06,2185.08z M1205.44,2161.33l5.42,20.08l498.11-1.52c9.98-0.03,19.74-3.1,27.47-8.63
				l26.36-18.88c8.83-6.32,13.75-16.28,13.16-26.65l-8.23-145.58c-0.58-10.26-10.26-18.61-21.57-18.61c-1.38,0-2.77,0.13-4.14,0.37
				l-26.55,4.82l-474.99,10.7L1205.44,2161.33z"/>
		</g>
	</g>
	<g>
		<g>
			
				<linearGradient id="SVGID_39_" gradientUnits="userSpaceOnUse" x1="2105.4912" y1="1668.2759" x2="1946.801" y2="1924.9807" gradientTransform="matrix(-0.993 0.1177 0.1177 0.993 4248.1611 -89.6996)">
				<stop  offset="0" style="stop-color:#476E8C"/>
				<stop  offset="0.9964" style="stop-color:#2C3A4F"/>
			</linearGradient>
			<path class="st42" d="M2553.94,1964.28L2435.51,1760c-1.46-2.52-4.4-3.79-7.24-3.13l-165.69,38.72
				c-4.42,1.03-6.52,6.11-4.11,9.96l137.42,219.74c1.65,2.65,4.93,3.78,7.87,2.72l145.63-52.59L2553.94,1964.28z"/>
			<path class="st2" d="M2524.8,1941.1l-95.89-165.41c-1.18-2.04-3.56-3.07-5.86-2.53l-134.16,31.35c-3.58,0.84-5.28,4.95-3.33,8.07
				l111.27,177.92c1.34,2.14,3.99,3.06,6.37,2.2l117.91-42.58L2524.8,1941.1z"/>
			
				<linearGradient id="SVGID_40_" gradientUnits="userSpaceOnUse" x1="2089.2837" y1="1651.8094" x2="2127.0515" y2="1573.476" gradientTransform="matrix(-0.993 0.1177 0.1177 0.993 4248.1611 -89.6996)">
				<stop  offset="0" style="stop-color:#3A8DF9"/>
				<stop  offset="0.9964" style="stop-color:#7496D7"/>
			</linearGradient>
			<path class="st43" d="M2400.62,1777.59l-7.61-13.27c-1.06-1.84-3.19-2.78-5.27-2.32l-69.01,15.52c-3.2,0.72-4.78,4.35-3.12,7.18
				l8.47,14.43c1.08,1.85,3.25,2.76,5.33,2.26l68.16-16.68C2400.7,1783.94,2402.22,1780.39,2400.62,1777.59z"/>
			<g>
				<path class="st10" d="M2310.22,1834.47c0.11-0.01,0.21-0.04,0.32-0.06l121.49-28.67c1.5-0.35,2.44-1.86,2.08-3.36
					c-0.36-1.51-1.92-2.41-3.37-2.08l-121.49,28.67c-1.5,0.35-2.44,1.86-2.08,3.36C2307.51,1833.73,2308.84,1834.63,2310.22,1834.47
					z"/>
				<path class="st10" d="M2317.84,1846.24c0.11-0.01,0.23-0.04,0.34-0.06l120.75-29.8c1.5-0.37,2.42-1.88,2.05-3.39
					c-0.36-1.5-1.86-2.41-3.38-2.04l-120.75,29.8c-1.5,0.37-2.42,1.88-2.05,3.39C2315.14,1845.52,2316.47,1846.4,2317.84,1846.24z"
					/>
				<path class="st10" d="M2381.54,1859.35c0.14-0.02,0.28-0.04,0.42-0.08l65.65-18.11c1.49-0.41,2.37-1.95,1.95-3.44
					c-0.41-1.48-1.98-2.36-3.44-1.95l-65.65,18.11c-1.49,0.41-2.37,1.95-1.95,3.45C2378.89,1858.66,2380.19,1859.51,2381.54,1859.35
					z"/>
				<path class="st10" d="M2395.63,1883.06c0.14-0.02,0.28-0.04,0.42-0.08l65.65-18.11c1.49-0.41,2.37-1.95,1.95-3.44
					c-0.41-1.48-1.98-2.36-3.44-1.95l-65.65,18.11c-1.49,0.41-2.37,1.95-1.95,3.45C2392.98,1882.37,2394.28,1883.22,2395.63,1883.06
					z"/>
				<path class="st10" d="M2410.43,1906.71c0.14-0.02,0.28-0.04,0.42-0.08l65.65-18.11c1.49-0.41,2.37-1.95,1.95-3.44
					c-0.41-1.48-1.98-2.36-3.44-1.95l-65.65,18.11c-1.49,0.41-2.37,1.95-1.95,3.45C2407.78,1906.02,2409.08,1906.87,2410.43,1906.71
					z"/>
			</g>
		</g>
		
			<linearGradient id="SVGID_41_" gradientUnits="userSpaceOnUse" x1="-275.5372" y1="1896.5253" x2="-216.8035" y2="1970.4197" gradientTransform="matrix(-1 0 0 1 2070.1406 0)">
			<stop  offset="0" style="stop-color:#D1D3FF"/>
			<stop  offset="0.9964" style="stop-color:#9082F3"/>
		</linearGradient>
		<path class="st44" d="M2353.65,1932.88c0,0-12.72-23.82-20.35-23.36s-13.13-5.29-13.13-5.29s-13.88-32-17.03-27.23
			c-3.14,4.77-8.93,66.05,29.46,80.62C2371,1972.19,2353.65,1932.88,2353.65,1932.88z"/>
		
			<linearGradient id="SVGID_42_" gradientUnits="userSpaceOnUse" x1="-1075.4625" y1="2351.9653" x2="-774.2089" y2="1761.7052" gradientTransform="matrix(-1 0 0 1 2070.1406 0)">
			<stop  offset="0" style="stop-color:#1D2B44"/>
			<stop  offset="1" style="stop-color:#813C89"/>
		</linearGradient>
		<path class="st45" d="M2995.58,1733.64c7.95,3,129.19,51.22,154.11,177.76c2.01,10.22,21.49,118.94-52.24,195.74
			c-82.67,86.12-241.86,83.98-305.05,11.99c-14.74-16.79-22.51-35.4-26.86-51.03l0,0l16.65-44.23
			c20.31-24.52,47.97-30.34,62.75-33.98c36.42-8.97,63.91,7.25,84.77-10.32c11.54-9.72,13.83-23.7,15.88-36.19
			c6.98-42.55-17.04-68.74-18.79-94.98c-1.31-19.62-8.17-62.59,17.43-90.62C2960.43,1740.03,2982.89,1735.2,2995.58,1733.64z"/>
		
			<linearGradient id="SVGID_43_" gradientUnits="userSpaceOnUse" x1="2608.8513" y1="3312.1262" x2="2658.5417" y2="3356.3259" gradientTransform="matrix(0.9902 -0.14 0.14 0.9902 -18.1354 206.9384)">
			<stop  offset="0" style="stop-color:#476E8C"/>
			<stop  offset="0.9964" style="stop-color:#2C3A4F"/>
		</linearGradient>
		<path class="st46" d="M3042.82,3143.85c1.41-7.79,26.57-14.84,39.03-4.41c6.19,5.18,10.44,15.68,6.87,20.43
			c-1.3,1.73,4.03,4.76-1.08,4.82C3070.69,3164.88,3041.41,3151.59,3042.82,3143.85z"/>
		
			<linearGradient id="SVGID_44_" gradientUnits="userSpaceOnUse" x1="1731.4507" y1="3356.3936" x2="1731.4507" y2="3269.8284" gradientTransform="matrix(0.9902 -0.14 0.14 0.9902 898.0657 77.4224)">
			<stop  offset="0" style="stop-color:#D1D3FF"/>
			<stop  offset="0.9964" style="stop-color:#9082F3"/>
		</linearGradient>
		<path class="st47" d="M3069.19,3146.68l25.87-3.66c-11.99-14.43-9.77-60.39-9.77-60.39l-27.51,6.14c0,0,3.14,12.61,8.47,31.22
			C3068.07,3126.37,3068.89,3136.34,3069.19,3146.68z"/>
		
			<linearGradient id="SVGID_45_" gradientUnits="userSpaceOnUse" x1="2613.8469" y1="3306.511" x2="2663.5371" y2="3350.7104" gradientTransform="matrix(0.9902 -0.14 0.14 0.9902 -18.1354 206.9384)">
			<stop  offset="0" style="stop-color:#476E8C"/>
			<stop  offset="0.9964" style="stop-color:#2C3A4F"/>
		</linearGradient>
		<path class="st48" d="M3066.89,3143.5c0,0,31.15-7.18,34.52-1c3.37,6.18,5.99,22.72-13.78,22.19
			C3067.87,3164.15,3065.14,3148.74,3066.89,3143.5z"/>
		
			<linearGradient id="SVGID_46_" gradientUnits="userSpaceOnUse" x1="2592.4316" y1="3148.8413" x2="2642.1243" y2="3193.043" gradientTransform="matrix(1 0 0 1 84.7074 0)">
			<stop  offset="0" style="stop-color:#476E8C"/>
			<stop  offset="0.9964" style="stop-color:#2C3A4F"/>
		</linearGradient>
		<path class="st49" d="M2687.83,3173.06c2.49-7.51,28.39-10.98,39.26,1.1c5.4,5.99,8.15,16.99,3.94,21.18
			c-1.53,1.53,3.32,5.28-1.74,4.62C2712.48,3197.79,2685.35,3180.53,2687.83,3173.06z"/>
		
			<linearGradient id="SVGID_47_" gradientUnits="userSpaceOnUse" x1="1714.9878" y1="3193.1313" x2="1714.9878" y2="3106.5625" gradientTransform="matrix(1 0 0 1 1010.0176 0)">
			<stop  offset="0" style="stop-color:#D1D3FF"/>
			<stop  offset="0.9964" style="stop-color:#9082F3"/>
		</linearGradient>
		<path class="st50" d="M2713.54,3179.56h26.13c-9.85-15.97-1.22-61.16-1.22-61.16l-28.1,2.23c0,0,1.34,12.93,4.01,32.1
			C2715.28,3159.29,2714.69,3169.27,2713.54,3179.56z"/>
		
			<linearGradient id="SVGID_48_" gradientUnits="userSpaceOnUse" x1="-360.473" y1="3232.8289" x2="-684.5035" y2="1924.5593" gradientTransform="matrix(-1 0 0 1 2360.4546 0)">
			<stop  offset="0" style="stop-color:#476E8C"/>
			<stop  offset="0.9964" style="stop-color:#2C3A4F"/>
		</linearGradient>
		<path class="st51" d="M2645.82,2191.46c-12.1,39.97-29.39,104.48-40.52,185.42c-31.74,230.87,35.72,238.23,23.12,494.06
			c-4.02,81.66,70.75,269.97,77.34,274.12c3.19,0.31,6.65,0.52,10.34,0.41c6.5-0.2,15.67-1.19,26.33-4.39
			c11.84-2.04,54.55-117.7,44.65-186.47c-7-48.67-4.97-100.9-0.91-205.37c0.66-16.93,43.97-329.33,43.97-329.33l0,0
			c13.17,115.63,28.32,213.89,41.46,290.06c42.2,244.74,179.41,392.87,186.56,395.25c1.41,0.57,14.29,5.24,24.81-1.69
			c4.69-3.09,6.28-7.07,6.28-7.07c3.67-2.87-1.08-244.34-42.93-426.07c-60.75-263.78-34.29-325.5-53.54-443.31
			C2976.13,2125.12,2645.82,2191.46,2645.82,2191.46z"/>
		
			<linearGradient id="SVGID_49_" gradientUnits="userSpaceOnUse" x1="-997.4855" y1="2531.1016" x2="-821.142" y2="2129.4294" gradientTransform="matrix(-1 0 0 1 2070.1406 0)">
			<stop  offset="0" style="stop-color:#1D2B44"/>
			<stop  offset="1" style="stop-color:#813C89"/>
		</linearGradient>
		<path class="st52" d="M2891.18,1713.06c-40.33-1.19-133.03-15.42-184.09,30.52c-0.89,0.8,9.57,6.39,4.42,12.42
			c-4.78,5.6-21.18,25.21-36.05,51.73c-10.77,19.2-20.49,41.58-30.3,74.94c-17.3,58.83-22.26,108.93-23.92,130.75
			c-9.33,122.75-0.08,179.38,8.32,217.89c36.46,18.73,130.42,52.25,242.38,35.59c51.13-7.61,92.04-24.62,120.84-39.81
			c-29.05-87.96-6.26-135.02,4.49-178.41c15.33-61.86,15.58-57.18,28.2-106.32c20.83-81.08,24.25-163.93,9.93-180.88
			C2996.83,1715.77,2927.29,1714.12,2891.18,1713.06z"/>
		
			<linearGradient id="SVGID_50_" gradientUnits="userSpaceOnUse" x1="2597.428" y1="3143.2266" x2="2647.1196" y2="3187.4275" gradientTransform="matrix(1 0 0 1 84.7074 0)">
			<stop  offset="0" style="stop-color:#476E8C"/>
			<stop  offset="0.9964" style="stop-color:#2C3A4F"/>
		</linearGradient>
		<path class="st53" d="M2711.71,3176.08c0,0,31.85-2.75,34.32,3.84c2.47,6.59,2.75,23.34-16.75,20.04
			C2709.79,3196.67,2709.24,3181.02,2711.71,3176.08z"/>
		<g>
			
				<linearGradient id="SVGID_51_" gradientUnits="userSpaceOnUse" x1="-794.3602" y1="1596.1035" x2="-762.293" y2="1960.5601" gradientTransform="matrix(-1 0 0 1 2070.1406 0)">
				<stop  offset="0" style="stop-color:#D1D3FF"/>
				<stop  offset="0.9964" style="stop-color:#9082F3"/>
			</linearGradient>
			<path class="st54" d="M2776.63,1668.91c-12.49-21.12-5.88-47.34-4.62-52.55c5.25-21.83,7.21-25.14,11.26-29.76l5.73-6.06
				c0,0,0.35-0.27,0.73-0.53c3.98-2.74,18.86-7.19,22.07-7.35c10.26-0.52,31.13,36.27,43.09,92.95c0.97,2.02,1.93,4.07,2.88,6.13
				c5.93,12.86,11.01,25.51,15.38,37.84c69.32,5.86,78.94,13.99,79.25,18.69c0.65,9.89-38.85,21.31-68.55,25.66
				c-64.78,9.49-131.38-7.6-131.07-19.68c0.13-5.26,13.01-12.11,67.93-19.3c-1.28-9.09-2.57-18.18-3.85-27.26
				C2812.39,1686.7,2785.83,1684.47,2776.63,1668.91z"/>
			<path class="st55" d="M2764.65,1570.02c4.67,17.3,17.76,33.62,22.71,35.49c0.64,0.24,4.3,1.82,8.1,5.18
				c0.52,0.46,1.02,1.02,1.53,1.78c6.7,9.9-7.23,27.37-2.57,31.36c3.37,2.9,13.9-4.99,16.12-2.3c2.09,2.53-6.12,11.11-3.7,14.16
				c1.83,2.3,7.22-1.69,12.09,1.29c2.43,1.48,2.29,3.21,5.92,8.75c2.05,3.13,4.64,6.47,6.43,8.23c8.7,8.57,26.64,7.77,28.81,2.83
				c0.61-1.38-0.43-2.12-0.52-6.17c0,0-0.08-3.76,1.29-8.49c1.95-6.76,9.31-13.18,16.21-21.61c12.78-15.61,14.49-26.46,14.91-30.08
				c0.15-1.29,0.2-2.25,0.23-2.94c0.71-13.86-4.27-32.62-13.08-42.62c-14.76-16.75-34-1.8-56.86-16.21
				c-26.37-16.62-22.21-50.05-34.22-50.43C2774.83,1497.83,2756.01,1538.03,2764.65,1570.02z"/>
			
				<linearGradient id="SVGID_52_" gradientUnits="userSpaceOnUse" x1="-740.1353" y1="1591.3325" x2="-708.0682" y2="1955.7872" gradientTransform="matrix(-1 0 0 1 2070.1406 0)">
				<stop  offset="0" style="stop-color:#D1D3FF"/>
				<stop  offset="0.9964" style="stop-color:#9082F3"/>
			</linearGradient>
			<path class="st56" d="M2799.56,1638.11c2.69-6.96,11.61-3.47,13.66,4.06c2.06,7.53-3.16,17.33-10.65,17.73
				C2795.08,1660.3,2795.94,1647.48,2799.56,1638.11z"/>
		</g>
		<path class="st57" d="M2979.94,2171.14c-0.44,0-0.81-0.33-0.86-0.77c-4.81-43.31,4.13-74.68,12.03-102.36
			c1.93-6.76,3.75-13.14,5.33-19.53c8.71-35.15,12.52-48.72,16.56-63.09c2.62-9.33,5.33-18.99,9.54-35.11
			c0.12-0.46,0.59-0.74,1.06-0.62c0.47,0.12,0.74,0.6,0.62,1.06c-4.21,16.14-6.92,25.8-9.55,35.15
			c-4.03,14.35-7.84,27.91-16.55,63.03c-1.59,6.41-3.42,12.81-5.35,19.59c-7.85,27.52-16.75,58.72-11.97,101.69
			c0.05,0.48-0.29,0.91-0.77,0.96C2980,2171.14,2979.97,2171.14,2979.94,2171.14z"/>
		<path class="st55" d="M2799.64,1624.56l-6.43,15.43c0,0-4.47,14.89-14.92,11.58c-7.19-2.28-9.07-8.11-9.14-11.36
			c-1.62,4.46-3.21,11.31-3.21,20.11c0,8.54,0,17.69,6.69,24.7c0.39,0.4,7.67,7.82,17.49,7.46c0,0,3.86-0.14,18.52-6.95
			c0,0-20.07-7.72-21.1-10.55c-2.8-7.7,7-14.87,10.81-33.19C2799.82,1634.73,2799.86,1628.67,2799.64,1624.56z"/>
		
			<linearGradient id="SVGID_53_" gradientUnits="userSpaceOnUse" x1="-648.8057" y1="2225.4963" x2="-504.3019" y2="1914.4454" gradientTransform="matrix(-1 0 0 1 2070.1406 0)">
			<stop  offset="0" style="stop-color:#1D2B44"/>
			<stop  offset="1" style="stop-color:#813C89"/>
		</linearGradient>
		<path class="st58" d="M2354.13,1927.89c-14.58,10.21-22.41,24.07-26.46,32.91c10.72,25.17,35.04,71.9,85.38,106.34
			c82.53,56.47,203.55,58.37,287.84-6.03c100.71-76.94,117.53-224.48,75.23-287.66c-4.87-7.27-20.88-31.19-45.73-33.93
			c-15.69-1.73-37.06,4.74-70.81,44.25c-70.33,82.34-45.49,133.76-87.04,157.85C2510.24,1977.76,2417.66,1883.44,2354.13,1927.89z"
			/>
		<path class="st57" d="M2637.63,2095.68c-0.4,0-0.76-0.28-0.85-0.69c-0.1-0.47,0.2-0.93,0.67-1.04
			c0.98-0.21,98.72-22.72,142.74-144.15c0.16-0.45,0.67-0.68,1.11-0.52c0.45,0.16,0.69,0.66,0.52,1.12
			c-23.17,63.93-61.07,100.01-88.77,119.02c-30.05,20.62-54.98,26.18-55.23,26.23C2637.75,2095.67,2637.69,2095.68,2637.63,2095.68z
			"/>
	</g>
</g>
</svg>
