<?xml version="1.0" encoding="utf-8"?>
<!-- Generator: Adobe Illustrator 25.0.0, SVG Export Plug-In . SVG Version: 6.00 Build 0)  -->
<svg version="1.1" xmlns="http://www.w3.org/2000/svg" xmlns:xlink="http://www.w3.org/1999/xlink" x="0px" y="0px"
	 viewBox="0 0 600 600" style="enable-background:new 0 0 600 600;" xml:space="preserve">
<style type="text/css">
	.st0{display:none;opacity:0.5;}
	.st1{display:inline;}
	.st2{fill:#1C3FAA;}
	.st3{enable-background:new    ;}
	.st4{clip-path:url(#SVGID_2_);enable-background:new    ;}
	.st5{fill:#2D3E69;}
	.st6{fill:#2E406D;}
	.st7{fill:#304270;}
	.st8{fill:#2B3C66;}
	.st9{fill:#2A3A63;}
	.st10{fill:#28385F;}
	.st11{fill:#27365C;}
	.st12{fill:#253458;}
	.st13{clip-path:url(#SVGID_4_);enable-background:new    ;}
	.st14{fill:#2C3E62;}
	.st15{clip-path:url(#SVGID_6_);enable-background:new    ;}
	.st16{fill:#253357;}
	.st17{clip-path:url(#SVGID_8_);enable-background:new    ;}
	.st18{clip-path:url(#SVGID_10_);enable-background:new    ;}
	.st19{clip-path:url(#SVGID_12_);enable-background:new    ;}
	.st20{clip-path:url(#SVGID_14_);enable-background:new    ;}
	.st21{fill:#384F7C;}
	.st22{fill:#364C78;}
	.st23{fill:#354A75;}
	.st24{fill:#2B3D60;}
	.st25{clip-path:url(#SVGID_16_);enable-background:new    ;}
	.st26{fill:#2E4066;}
	.st27{fill:#304369;}
	.st28{fill:#31456D;}
	.st29{fill:#334771;}
	.st30{clip-path:url(#SVGID_18_);enable-background:new    ;}
	.st31{clip-path:url(#SVGID_20_);enable-background:new    ;}
	.st32{clip-path:url(#SVGID_22_);enable-background:new    ;}
	.st33{clip-path:url(#SVGID_24_);enable-background:new    ;}
	.st34{clip-path:url(#SVGID_26_);enable-background:new    ;}
	.st35{clip-path:url(#SVGID_28_);enable-background:new    ;}
	.st36{clip-path:url(#SVGID_30_);enable-background:new    ;}
	.st37{clip-path:url(#SVGID_32_);enable-background:new    ;}
	.st38{clip-path:url(#SVGID_34_);enable-background:new    ;}
	.st39{clip-path:url(#SVGID_36_);enable-background:new    ;}
	.st40{clip-path:url(#SVGID_38_);enable-background:new    ;}
	.st41{clip-path:url(#SVGID_40_);enable-background:new    ;}
	.st42{fill:#9FB3CE;}
	.st43{clip-path:url(#SVGID_42_);enable-background:new    ;}
	.st44{clip-path:url(#SVGID_44_);enable-background:new    ;}
	.st45{clip-path:url(#SVGID_46_);enable-background:new    ;}
	.st46{clip-path:url(#SVGID_48_);enable-background:new    ;}
	.st47{clip-path:url(#SVGID_50_);enable-background:new    ;}
	.st48{clip-path:url(#SVGID_52_);enable-background:new    ;}
	.st49{clip-path:url(#SVGID_54_);enable-background:new    ;}
	.st50{clip-path:url(#SVGID_56_);enable-background:new    ;}
	.st51{clip-path:url(#SVGID_58_);enable-background:new    ;}
	.st52{clip-path:url(#SVGID_60_);enable-background:new    ;}
	.st53{clip-path:url(#SVGID_62_);enable-background:new    ;}
	.st54{clip-path:url(#SVGID_64_);enable-background:new    ;}
	.st55{clip-path:url(#SVGID_66_);enable-background:new    ;}
	.st56{clip-path:url(#SVGID_68_);enable-background:new    ;}
	.st57{clip-path:url(#SVGID_70_);enable-background:new    ;}
	.st58{clip-path:url(#SVGID_72_);enable-background:new    ;}
	.st59{clip-path:url(#SVGID_74_);enable-background:new    ;}
	.st60{fill:#3F5794;}
	.st61{fill:#334778;}
	.st62{clip-path:url(#SVGID_76_);enable-background:new    ;}
	.st63{fill:#384A6E;}
	.st64{fill:#3B4B6F;}
	.st65{fill:#3D4D71;}
	.st66{fill:#36486C;}
	.st67{fill:#34466B;}
	.st68{fill:#324469;}
	.st69{fill:#304268;}
	.st70{clip-path:url(#SVGID_78_);enable-background:new    ;}
	.st71{clip-path:url(#SVGID_80_);enable-background:new    ;}
	.st72{clip-path:url(#SVGID_82_);enable-background:new    ;}
	.st73{clip-path:url(#SVGID_84_);enable-background:new    ;}
	.st74{clip-path:url(#SVGID_86_);enable-background:new    ;}
	.st75{clip-path:url(#SVGID_88_);enable-background:new    ;}
	.st76{fill:#405681;}
	.st77{fill:#3C537F;}
	.st78{clip-path:url(#SVGID_90_);enable-background:new    ;}
	.st79{fill:#3F4F72;}
	.st80{clip-path:url(#SVGID_92_);enable-background:new    ;}
	.st81{clip-path:url(#SVGID_94_);enable-background:new    ;}
	.st82{clip-path:url(#SVGID_96_);enable-background:new    ;}
	.st83{clip-path:url(#SVGID_98_);enable-background:new    ;}
	.st84{clip-path:url(#SVGID_100_);enable-background:new    ;}
	.st85{clip-path:url(#SVGID_102_);enable-background:new    ;}
	.st86{clip-path:url(#SVGID_104_);enable-background:new    ;}
	.st87{clip-path:url(#SVGID_106_);enable-background:new    ;}
	.st88{clip-path:url(#SVGID_108_);enable-background:new    ;}
	.st89{clip-path:url(#SVGID_110_);enable-background:new    ;}
	.st90{clip-path:url(#SVGID_112_);enable-background:new    ;}
	.st91{clip-path:url(#SVGID_114_);enable-background:new    ;}
	.st92{clip-path:url(#SVGID_116_);enable-background:new    ;}
	.st93{clip-path:url(#SVGID_118_);enable-background:new    ;}
	.st94{clip-path:url(#SVGID_120_);enable-background:new    ;}
	.st95{clip-path:url(#SVGID_122_);enable-background:new    ;}
	.st96{clip-path:url(#SVGID_124_);enable-background:new    ;}
	.st97{clip-path:url(#SVGID_126_);enable-background:new    ;}
	.st98{clip-path:url(#SVGID_128_);enable-background:new    ;}
	.st99{clip-path:url(#SVGID_130_);enable-background:new    ;}
	.st100{clip-path:url(#SVGID_132_);enable-background:new    ;}
	.st101{clip-path:url(#SVGID_134_);enable-background:new    ;}
	.st102{clip-path:url(#SVGID_136_);enable-background:new    ;}
	.st103{clip-path:url(#SVGID_138_);enable-background:new    ;}
	.st104{clip-path:url(#SVGID_140_);enable-background:new    ;}
	.st105{clip-path:url(#SVGID_142_);enable-background:new    ;}
	.st106{clip-path:url(#SVGID_144_);enable-background:new    ;}
	.st107{clip-path:url(#SVGID_146_);enable-background:new    ;}
	.st108{clip-path:url(#SVGID_148_);enable-background:new    ;}
	.st109{fill:#4A5F88;}
	.st110{clip-path:url(#SVGID_150_);enable-background:new    ;}
	.st111{clip-path:url(#SVGID_152_);enable-background:new    ;}
	.st112{clip-path:url(#SVGID_154_);enable-background:new    ;}
	.st113{clip-path:url(#SVGID_156_);enable-background:new    ;}
	.st114{clip-path:url(#SVGID_158_);enable-background:new    ;}
	.st115{clip-path:url(#SVGID_160_);enable-background:new    ;}
	.st116{clip-path:url(#SVGID_162_);enable-background:new    ;}
	.st117{clip-path:url(#SVGID_164_);enable-background:new    ;}
	.st118{clip-path:url(#SVGID_166_);enable-background:new    ;}
	.st119{clip-path:url(#SVGID_168_);enable-background:new    ;}
	.st120{clip-path:url(#SVGID_170_);enable-background:new    ;}
	.st121{clip-path:url(#SVGID_172_);enable-background:new    ;}
	.st122{clip-path:url(#SVGID_174_);enable-background:new    ;}
	.st123{clip-path:url(#SVGID_176_);enable-background:new    ;}
	.st124{clip-path:url(#SVGID_178_);enable-background:new    ;}
	.st125{clip-path:url(#SVGID_180_);enable-background:new    ;}
	.st126{clip-path:url(#SVGID_182_);enable-background:new    ;}
	.st127{clip-path:url(#SVGID_184_);enable-background:new    ;}
	.st128{clip-path:url(#SVGID_186_);enable-background:new    ;}
	.st129{clip-path:url(#SVGID_188_);enable-background:new    ;}
	.st130{clip-path:url(#SVGID_190_);enable-background:new    ;}
	.st131{clip-path:url(#SVGID_192_);enable-background:new    ;}
	.st132{clip-path:url(#SVGID_194_);enable-background:new    ;}
	.st133{clip-path:url(#SVGID_196_);enable-background:new    ;}
	.st134{clip-path:url(#SVGID_198_);enable-background:new    ;}
	.st135{clip-path:url(#SVGID_200_);enable-background:new    ;}
	.st136{clip-path:url(#SVGID_202_);enable-background:new    ;}
	.st137{clip-path:url(#SVGID_204_);enable-background:new    ;}
	.st138{clip-path:url(#SVGID_206_);enable-background:new    ;}
	.st139{clip-path:url(#SVGID_208_);enable-background:new    ;}
	.st140{clip-path:url(#SVGID_210_);enable-background:new    ;}
	.st141{clip-path:url(#SVGID_212_);enable-background:new    ;}
	.st142{clip-path:url(#SVGID_214_);enable-background:new    ;}
	.st143{clip-path:url(#SVGID_216_);enable-background:new    ;}
	.st144{clip-path:url(#SVGID_218_);enable-background:new    ;}
	.st145{clip-path:url(#SVGID_220_);enable-background:new    ;}
	.st146{clip-path:url(#SVGID_222_);enable-background:new    ;}
	.st147{fill:#FFFFFF;}
	.st148{fill:#B4C7FF;}
	.st149{fill:#5B6480;}
	.st150{fill:#91A0CC;}
	.st151{fill:#344780;}
</style>
<g class="st0">
	<g id="Capa_1" class="st1">
	</g>
</g>
<g>
	<path class="st147" d="M552.29,299.56c0-18.14,0.05-36.28-0.04-54.42c-0.02-3.75,1.09-6.12,5.13-4.75
		c1.37,0.46,2.98,2.58,3.07,4.03c0.38,5.8,0.23,11.64,0.23,17.46c0.01,30.12,0,60.24,0,90.36c0,1,0.03,2-0.02,2.99
		c-0.2,3.46-2.55,4.89-5.4,4.2c-1.29-0.31-2.88-2.89-2.9-4.46c-0.2-18.47-0.13-36.94-0.13-55.42
		C552.26,299.56,552.28,299.56,552.29,299.56z"/>
	<path class="st147" d="M543.35,300.22c0,18.83-0.08,37.65,0.08,56.48c0.03,3.52-0.93,5.46-4.56,5.5c-3.84,0.05-3.48-2.77-3.48-5.28
		c-0.01-37.82-0.03-75.64-0.02-113.46c0-5.77,1.55-7.34,5.58-5.31c1.34,0.67,2.34,3.33,2.36,5.09c0.17,18.99,0.1,37.99,0.1,56.98
		C543.38,300.22,543.36,300.22,543.35,300.22z"/>
	<path class="st147" d="M575.17,299.9c0,17.16,0.02,34.31-0.04,51.47c-0.01,1.59-0.03,3.65-0.96,4.65
		c-0.91,0.98-3.25,1.57-4.44,1.07c-0.98-0.41-1.66-2.65-1.67-4.09c-0.12-19.32-0.11-38.64-0.11-57.96
		c-0.01-15.66-0.03-31.31,0.04-46.97c0.01-2.44-1.08-5.87,3.33-5.75c4.15,0.11,3.91,3.19,3.9,6.12
		c-0.03,17.15-0.01,34.31-0.01,51.46C575.19,299.9,575.18,299.9,575.17,299.9z"/>
	<g>
		<path class="st42" d="M265.8,294.88c0-45.34,0-90.69,0-136.03c0-8.49,0.51-8.97,8.91-7.4c87.27,16.37,174.52,32.79,261.8,49.08
			c5.56,1.04,8.57,2.72,8.54,9.43c-0.3,56-0.35,112-0.02,168c0.05,7.61-2.67,10.1-9.64,11.39
			c-77.74,14.39-155.43,29.03-233.14,43.61c-9.56,1.79-19.18,3.37-28.67,5.5c-6.29,1.41-7.92-0.9-7.9-6.88
			c0.15-45.57,0.08-91.14,0.08-136.71C265.78,294.88,265.79,294.88,265.8,294.88z M286.84,294.87c0,35.83-0.04,71.66,0.1,107.49
			c0.01,2.14,1.54,6.12,2.34,6.11c4.92-0.04,10.15-0.19,14.57-2.02c1.72-0.71,2.21-5.89,2.22-9.04c0.1-67.8,0.06-135.61,0.04-203.42
			c0-11.45-0.02-11.45-11.11-12.83c-8.14-1.01-8.16-1.01-8.16,7.56C286.83,224.11,286.83,259.49,286.84,294.87z M327.7,294.86
			c-0.02,0-0.04,0-0.06,0c0,33.56-0.01,67.13,0.02,100.69c0,3.54-0.84,7.61,4.9,7.74c8.47,0.19,12.72-2.34,12.73-8.24
			c0.06-66.9,0.08-133.8,0.05-200.7c0-5.75-4.11-8.04-12.98-7.98c-6.11,0.04-4.59,4.54-4.6,7.8
			C327.66,227.74,327.7,261.3,327.7,294.86z M364.38,294.11c-0.02,0-0.03,0-0.05,0c0,31.71-0.03,63.42,0.04,95.13
			c0.01,3.55-1.49,8.23,4.85,8.39c8.53,0.21,11.56-1.81,11.56-8.33c0.01-62.96-0.01-125.93-0.06-188.89
			c-0.01-6.63-2.28-8.03-11.6-8.31c-6.28-0.19-4.67,4.34-4.68,7.57C364.35,231.14,364.38,262.63,364.38,294.11z M398,198.02
			c0,3.07,0,5.75,0,8.42c0.02,59.15,0.04,118.29,0.07,177.44c0,8.71,2.7,10.82,10.48,7.03c2.04-0.99,3.42-5.38,3.43-8.22
			c0.21-58.01,0.17-116.03,0.2-174.04C412.18,198.07,410.53,196.69,398,198.02z M427.2,294.86c-0.02,0-0.04,0-0.06,0
			c0,28.57-0.01,57.13,0.02,85.7c0,3.32-0.68,7.66,4.57,7.21c4.47-0.38,9.42-0.17,9.39-7.61c-0.25-56.9-0.27-113.81-0.06-170.72
			c0.03-7.52-5.12-7.04-9.5-7.5c-5.63-0.58-4.29,4.16-4.3,7.21C427.16,237.73,427.2,266.3,427.2,294.86z M455.58,294.7
			c0,27.62-0.04,55.24,0.03,82.86c0.01,6.34,1.99,7.41,7.92,5.53c4.71-1.5,4.48-5.05,4.47-8.71c-0.01-53.66-0.12-107.32,0.1-160.97
			c0.03-6.45-3.45-6.73-8.06-7.1c-6.04-0.48-4.41,3.88-4.42,6.89C455.54,240.36,455.57,267.53,455.58,294.7z M503.56,294.45
			c-0.02,0-0.05,0-0.07,0c0,25.14-0.1,50.27,0.18,75.41c0.02,2.13,2.18,5.64,3.94,6.07c3.88,0.94,7.08-1.01,7.35-5.71
			c0.08-1.35,0.03-2.72,0.03-4.07c0-40.99,0.01-81.97-0.01-122.96c0-7.93,0.2-15.87-0.31-23.76c-0.13-1.97-2.32-4.85-4.18-5.48
			c-5.51-1.86-7.01,1.36-6.99,6.47C503.63,245.08,503.56,269.76,503.56,294.45z M491.38,295.35c0.02,0,0.04,0,0.07,0
			c0-25.84,0.08-51.69-0.14-77.53c-0.02-2.39-1.39-6-3.21-6.92c-5.49-2.77-7.59-0.62-7.59,7.22c-0.02,51.46,0.01,102.92,0.03,154.39
			c0,3.42-0.49,7.25,4.74,7.18c4.95-0.06,6.25-2.7,6.21-7.49C491.27,346.58,491.38,320.96,491.38,295.35z M534.68,294.92
			c0.02,0,0.03,0,0.05,0c0-23.34-0.02-46.69,0.02-70.03c0.01-3.99,0.34-8.17-5.31-8.32c-6-0.16-4.52,4.51-4.53,7.83
			c-0.09,21.3-0.06,42.61-0.05,63.91c0.01,26.29-0.01,52.58,0.15,78.87c0.01,1.95,0.94,5.01,2.27,5.56
			c1.62,0.67,4.81-0.12,6.04-1.46c1.26-1.36,1.3-4.16,1.3-6.32C534.71,341.6,534.68,318.26,534.68,294.92z"/>
		<path class="st7" d="M251.91,294.91c0.01,45.32,0.03,90.63-0.01,135.95c-0.01,8.69-0.16,8.85-8.83,7.48
			c-19.45-3.06-38.84-6.47-58.32-9.29c-5.53-0.8-6.99-3.11-6.98-8.39c0.14-51.21,0.05-102.41,0.03-153.62
			c-0.01-32.63,0.12-65.26-0.12-97.88c-0.04-5.65,1.54-7.79,7.34-8.59c19.95-2.76,39.84-5.96,59.66-9.51
			c6.23-1.11,7.32,0.96,7.3,6.54C251.83,203.37,251.9,249.14,251.91,294.91z M198.99,286.87c0,0.02,0,0.03,0,0.05
			c-3.61,0-7.49-0.82-10.75,0.26c-2.62,0.86-5.78,3.7-6.39,6.22c-1,4.1,2.17,6.8,6.38,6.9c6.99,0.18,14.07,0.48,20.95-0.46
			c2.37-0.32,5.86-4.15,5.9-6.43c0.04-2.14-3.44-5.33-6.02-6.28C206.07,286.03,202.38,286.87,198.99,286.87z"/>
		<path class="st7" d="M165.47,294.41c0,40.79,0.01,81.58-0.01,122.37c0,7.77-0.32,8.06-8.31,6.81c-19.91-3.1-39.78-6.51-59.73-9.29
			c-5.61-0.78-7.03-3.16-7.02-8.36c0.14-55.75,0.11-111.49,0.12-167.24c0.01-18.36,0.22-36.71-0.1-55.06
			c-0.1-5.68,1.82-8.11,7.4-8.94c20.16-2.97,40.29-6.19,60.39-9.52c5.3-0.88,7.29,0.45,7.26,6.18c-0.19,41.02-0.1,82.03-0.1,123.05
			C165.4,294.41,165.43,294.41,165.47,294.41z M139.52,300.27c0,0.08,0,0.17,0,0.25c3.82-0.2,7.91,0.38,11.35-0.86
			c2.33-0.84,5.21-4.26,5.15-6.46c-0.05-2.12-3.38-5.72-5.56-5.95c-7.11-0.75-14.42-0.81-21.52,0.04c-2.39,0.29-5.73,3.8-6.21,6.31
			c-0.78,4.03,2.42,6.49,6.67,6.65C132.76,300.37,136.14,300.27,139.52,300.27z"/>
		<path class="st147" d="M286.84,294.87c0-35.38-0.01-70.75,0-106.13c0-8.57,0.03-8.57,8.16-7.56c11.09,1.37,11.11,1.37,11.11,12.83
			c0.02,67.81,0.06,135.61-0.04,203.42c0,3.15-0.5,8.32-2.22,9.04c-4.42,1.83-9.65,1.98-14.57,2.02c-0.8,0.01-2.33-3.97-2.34-6.11
			C286.8,366.53,286.84,330.7,286.84,294.87z"/>
		<path class="st147" d="M327.7,294.86c0-33.56-0.04-67.13,0.06-100.69c0.01-3.26-1.51-7.77,4.6-7.8
			c8.87-0.05,12.97,2.24,12.98,7.98c0.03,66.9,0.01,133.8-0.05,200.7c-0.01,5.9-4.26,8.43-12.73,8.24c-5.74-0.13-4.9-4.2-4.9-7.74
			c-0.03-33.56-0.02-67.13-0.02-100.69C327.66,294.86,327.68,294.86,327.7,294.86z"/>
		<path class="st147" d="M364.38,294.11c0-31.48-0.04-62.97,0.06-94.45c0.01-3.23-1.59-7.77,4.68-7.57
			c9.33,0.29,11.6,1.69,11.6,8.31c0.05,62.96,0.07,125.93,0.06,188.89c0,6.52-3.03,8.54-11.56,8.33c-6.33-0.16-4.84-4.84-4.85-8.39
			c-0.08-31.71-0.04-63.42-0.04-95.13C364.35,294.11,364.37,294.11,364.38,294.11z"/>
		<path class="st147" d="M398,198.02c12.54-1.34,14.19,0.05,14.18,10.64c-0.03,58.01,0.01,116.03-0.2,174.04
			c-0.01,2.84-1.39,7.23-3.43,8.22c-7.79,3.79-10.48,1.67-10.48-7.03c-0.03-59.15-0.05-118.29-0.07-177.44
			C398,203.77,398,201.09,398,198.02z"/>
		<path class="st147" d="M427.2,294.86c0-28.57-0.04-57.13,0.06-85.7c0.01-3.05-1.32-7.79,4.3-7.21c4.38,0.45,9.53-0.03,9.5,7.5
			c-0.21,56.9-0.2,113.81,0.06,170.72c0.03,7.44-4.92,7.23-9.39,7.61c-5.25,0.44-4.57-3.89-4.57-7.21
			c-0.03-28.57-0.02-57.13-0.02-85.7C427.16,294.86,427.18,294.86,427.2,294.86z"/>
		<path class="st147" d="M455.58,294.7c0-27.17-0.04-54.34,0.05-81.51c0.01-3-1.61-7.37,4.42-6.89c4.61,0.37,8.08,0.65,8.06,7.1
			c-0.22,53.66-0.11,107.32-0.1,160.97c0,3.66,0.24,7.21-4.47,8.71c-5.93,1.88-7.91,0.81-7.92-5.53
			C455.54,349.94,455.58,322.32,455.58,294.7z"/>
		<path class="st147" d="M198.99,286.87c3.39,0,7.08-0.84,10.07,0.26c2.58,0.95,6.06,4.14,6.02,6.28c-0.04,2.28-3.53,6.11-5.9,6.43
			c-6.88,0.93-13.96,0.63-20.95,0.46c-4.21-0.11-7.38-2.8-6.38-6.9c0.61-2.52,3.77-5.36,6.39-6.22c3.26-1.07,7.14-0.26,10.75-0.26
			C198.99,286.9,198.99,286.89,198.99,286.87z"/>
		<path class="st147" d="M139.52,300.27c-3.37,0-6.75,0.1-10.12-0.03c-4.24-0.16-7.44-2.62-6.67-6.65c0.48-2.51,3.82-6.02,6.21-6.31
			c7.1-0.85,14.41-0.79,21.52-0.04c2.18,0.23,5.51,3.83,5.56,5.95c0.05,2.2-2.82,5.62-5.15,6.46c-3.44,1.24-7.54,0.66-11.35,0.86
			C139.52,300.43,139.52,300.35,139.52,300.27z"/>
	</g>
</g>
</svg>
