<?xml version="1.0"?>
<svg xmlns="http://www.w3.org/2000/svg" id="Layer_1" data-name="Layer 1" viewBox="0 0 512 512" width="512" height="512"><path d="M122.46,293.97a6,6,0,0,0-6,6v5.83a6,6,0,0,0,12,0v-5.83A6,6,0,0,0,122.46,293.97Z"/><path d="M122.46,318.71a6,6,0,0,0-6,6v68.53a6,6,0,0,0,12,0V324.71A6,6,0,0,0,122.46,318.71Z"/><path d="M453.352,417.48c-.149-.563-.3-1.115-.467-1.715a81.184,81.184,0,0,0-43.056-51.431,13.574,13.574,0,0,0,.961-5v-3.32a13.621,13.621,0,0,0-5.041-10.59,134.951,134.951,0,0,1,10.838-19.454c4.6-6.78,8.779-10.07,13.208-13.554q.8-.628,1.589-1.255a12.148,12.148,0,0,0-5.79-21.547c-3.743-.577-8.157-3.174-11.7-5.261a47.669,47.669,0,0,0-5.837-3.111c-10.74-4.347-17.588,2.941-20.515,6.054a23.689,23.689,0,0,1-5.688,3.354c-.213.081-.438.155-.657.224-4.588,1.345-6.855,1.127-11.16-2.762-7.109-6.422-15.465-7.553-22.334-3.037-2.764,1.8-4.117,4.8-5.426,7.7a38.758,38.758,0,0,1-1.816,3.681,6.123,6.123,0,0,1-.513.769,1.581,1.581,0,0,1-.834-.1,15.541,15.541,0,0,1-2.171-1.482c-1.167-.874-2.656-1.986-4.728-3.28V276.97h5.16a21.87,21.87,0,0,0,0-43.74h-5.16V195.293A92.775,92.775,0,1,0,246.931,48.65H78.26A21.877,21.877,0,0,0,56.39,70.52,21.894,21.894,0,0,0,78.26,92.39h5.16V233.23H78.26A21.877,21.877,0,0,0,56.39,255.1a21.894,21.894,0,0,0,21.87,21.87h5.16V417.81H78.26a21.877,21.877,0,0,0-21.87,21.87,21.894,21.894,0,0,0,21.87,21.87h200.5a68.173,68.173,0,0,0,61.8,40.15h47.52a67.132,67.132,0,0,0,53.6-26.522A66.1,66.1,0,0,0,453.352,417.48Zm-119.336-109.5a13.594,13.594,0,0,0,8.088,1.045,12.347,12.347,0,0,0,8.695-6.492,48.872,48.872,0,0,0,2.413-4.833,28.869,28.869,0,0,1,1.364-2.787c1.034-.609,3.413-1.517,7.41,2.1,7.129,6.442,13.693,7.992,22.65,5.353l.1-.031c.464-.146.942-.307,1.45-.5,1.711-.675,7.237-3.283,10.093-6.324,3.546-3.771,4.922-4.1,7.259-3.151a42.849,42.849,0,0,1,4.263,2.333c4.43,2.607,9.945,5.852,15.973,6.781.131.02.193.072.213.148a.2.2,0,0,1-.078.147q-.766.609-1.536,1.213c-4.725,3.716-10.079,7.927-15.724,16.256a147.955,147.955,0,0,0-12.671,23.114H380.82c.113-3.954,1.041-9.168,4.758-13.465a21.358,21.358,0,0,1,5.885-4.729,6,6,0,1,0-5.785-10.513,33.286,33.286,0,0,0-9.176,7.392c-4.914,5.681-7.478,12.833-7.658,21.315h-5.408c-1.41-6.173-4.072-16.547-6.963-21.158a6,6,0,0,0-10.166,6.375c1.417,2.26,3.363,8.947,4.8,14.783H337.687a86.081,86.081,0,0,0-11.774-24.037,78.979,78.979,0,0,0-8.026-9.582,4.589,4.589,0,0,1-1.289-3.92,4.792,4.792,0,0,1,6.928-3.634l.183.094a47.986,47.986,0,0,1,6.032,3.969A23.931,23.931,0,0,0,334.016,307.984ZM398.79,356.01v3.32a1.667,1.667,0,0,1-1.07,1.553l-.084.033a1.426,1.426,0,0,1-.516.084H331.47c-.055,0-.108,0-.171,0a1.674,1.674,0,0,1-1.5-1.665v-3.32a1.667,1.667,0,0,1,1.67-1.66h65.65a1.582,1.582,0,0,1,.19.015A1.655,1.655,0,0,1,398.79,356.01ZM78.26,80.39a9.881,9.881,0,0,1-9.87-9.87,9.876,9.876,0,0,1,9.87-9.87H239.553a91.094,91.094,0,0,0-7.463,19.74Zm0,184.58a9.881,9.881,0,0,1-9.87-9.87,9.876,9.876,0,0,1,9.87-9.87h36.405a6,6,0,0,0,0-12H95.42V92.39h134.5a93.277,93.277,0,0,0-.641,10.69,6,6,0,1,0,12,0A81.041,81.041,0,0,1,242.771,87.6a79.638,79.638,0,0,1,12.06-29.3,80.775,80.775,0,1,1,71.054,125.468c-1.2.061-2.489.092-3.825.092a80.68,80.68,0,0,1-78.3-60.838,6,6,0,0,0-11.631,2.952,92.648,92.648,0,0,0,88.084,69.847V233.23H140a6,6,0,0,0,0,12H337.37a9.87,9.87,0,0,1,0,19.74Zm0,184.58a9.88,9.88,0,0,1-9.87-9.87,9.876,9.876,0,0,1,9.87-9.87H273.028a65.921,65.921,0,0,0,1.637,19.74Zm353.9,18.322A55.219,55.219,0,0,1,388.08,489.7H340.56a56.12,56.12,0,0,1-52.188-36.271,53.971,53.971,0,0,1-2.675-28.52,55.68,55.68,0,0,1,1.633-6.721c.379-1.219.774-2.4,1.215-3.613a60.542,60.542,0,0,1,6.69-13.225,6,6,0,1,0-9.961-6.692,72.554,72.554,0,0,0-8.015,15.839c-.5,1.383-.955,2.735-1.39,4.135-.325,1.048-.618,2.11-.892,3.178H95.42V276.97H320.21v11.761a16.741,16.741,0,0,0-10.868,28.425,67.185,67.185,0,0,1,6.806,8.132,73.842,73.842,0,0,1,9.352,18.453,13.66,13.66,0,0,0-7.7,12.269v3.32a13.632,13.632,0,0,0,1.634,6.469,101.012,101.012,0,0,0-21.093,14.051,6,6,0,0,0,7.935,9c8.682-7.652,18.017-12.136,23.594-14.814.776-.373,1.487-.715,2.141-1.038l67.3-.185c21.189,8.445,35.72,24.4,42.033,46.244.139.5.271.983.408,1.5A54.194,54.194,0,0,1,432.161,467.872Z"/><path d="M322.059,166.748a45.04,45.04,0,0,0,38.858-67.8l-33.681-57.5a6,6,0,0,0-10.354,0l-33.68,57.5a45.033,45.033,0,0,0,38.857,67.8Zm-28.5-61.735,28.5-48.662,28.5,48.663a33.024,33.024,0,0,1-5.144,40.052l0,0a33.031,33.031,0,0,1-51.858-40.056Z"/><path d="M329.14,143.381a6.01,6.01,0,0,0,1.948-.326,27.316,27.316,0,0,0,10.567-6.616,27.611,27.611,0,0,0,7.585-14.116,6,6,0,1,0-11.76-2.386,15.684,15.684,0,0,1-4.311,8.019,15.458,15.458,0,0,1-5.978,3.749,6,6,0,0,0,1.949,11.676Z"/><path d="M365.174,409.692a8.98,8.98,0,0,1,8.969,8.969,6,6,0,0,0,12,0A21,21,0,0,0,371,398.533V394a6,6,0,0,0-12,0v4.623a20.968,20.968,0,0,0,6.174,41.007,8.97,8.97,0,1,1-8.97,8.97,6,6,0,0,0-12,0A21,21,0,0,0,359,468.639V472a6,6,0,0,0,12,0v-3.272a20.961,20.961,0,0,0-5.826-41.1,8.969,8.969,0,1,1,0-17.938Z"/></svg>
