<svg id="Capa_1" enable-background="new 0 0 512 512" height="512" viewBox="0 0 512 512" width="512" xmlns="http://www.w3.org/2000/svg"><g><g><g><g><g><g><circle cx="229.753" cy="37.627" r="7.798"/></g></g></g></g></g><g><path d="m127.666 164.29h204.175c4.142 0 7.5-3.357 7.5-7.5s-3.358-7.5-7.5-7.5h-204.175c-4.142 0-7.5 3.357-7.5 7.5s3.358 7.5 7.5 7.5z"/><path d="m127.666 211.518h204.175c4.142 0 7.5-3.357 7.5-7.5s-3.358-7.5-7.5-7.5h-204.175c-4.142 0-7.5 3.357-7.5 7.5s3.358 7.5 7.5 7.5z"/><path d="m127.666 258.746h112.664c4.142 0 7.5-3.357 7.5-7.5s-3.358-7.5-7.5-7.5h-112.664c-4.142 0-7.5 3.357-7.5 7.5s3.358 7.5 7.5 7.5z"/><path d="m210.158 298.475c0-4.143-3.358-7.5-7.5-7.5h-74.992c-4.142 0-7.5 3.357-7.5 7.5s3.358 7.5 7.5 7.5h74.992c4.142 0 7.5-3.358 7.5-7.5z"/><path d="m322.147 406.623c-3.545-2.144-8.156-1.005-10.298 2.539-2.143 3.545-1.006 8.156 2.539 10.299 8.578 5.185 14.444 6.758 21.957 7.168v2.367c0 4.143 3.358 7.5 7.5 7.5s7.5-3.357 7.5-7.5v-3.153c13.577-3.077 23.287-13.836 25.229-26.28 2.217-14.209-5.878-26.502-20.623-31.317-1.61-.526-3.137-1.005-4.606-1.46v-27.297c3.826 1.448 6.187 3.373 6.419 3.567 3.125 2.68 7.832 2.342 10.539-.77 2.719-3.124 2.391-7.861-.733-10.581-.393-.342-6.551-5.582-16.226-7.826v-3.154c0-4.143-3.358-7.5-7.5-7.5s-7.5 3.357-7.5 7.5v2.673c-13.646 2.269-22.364 11.899-24.443 23.308-3.03 16.624 8.493 25.223 24.443 30.999v33.899c-5.212-.373-8.542-1.562-14.197-4.981zm39.606-9.373c-.979 6.277-5.269 10.577-10.408 12.782v-27.511c10.905 3.588 10.913 11.493 10.408 14.729zm-35.094-47.855c.706-3.874 3.628-8.982 9.542-10.628.048-.013.095-.023.144-.036v22.765c-6.555-3.135-10.892-5.493-9.686-12.101z"/><path d="m461.191 341.116c-2.607-9.093-6.273-17.855-10.927-26.118 5.917-10.387 4.264-23.507-4.356-32.129l-10.118-10.117c-2.171-2.171-4.628-3.898-7.254-5.175v-187.449c0-19.792-16.102-35.895-35.894-35.895-5.294 0-119.086 0-124.729 0v-6.073c0-21.042-17.118-38.16-38.16-38.16s-38.16 17.118-38.16 38.16v6.073c-5.692 0-119.505 0-124.729 0-19.792 0-35.894 16.103-35.894 35.895v395.979c0 19.792 16.102 35.894 35.894 35.894h325.777c17.522 0 32.371-12.903 35.343-29.704 2.832-1.299 5.484-3.097 7.805-5.418l10.118-10.118c8.62-8.62 10.273-21.74 4.356-32.127 4.653-8.262 8.319-17.023 10.927-26.118 11.205-1.633 19.838-11.305 19.838-22.955v-21.488c.001-11.652-8.632-21.324-19.837-22.957zm-267.967-281.883c7.372 0 13.37-5.997 13.37-13.369v-7.704c0-12.771 10.389-23.16 23.16-23.16s23.16 10.39 23.16 23.16v7.704c0 7.372 5.998 13.369 13.37 13.369h38.55v30.203c0 1.471-1.196 2.667-2.667 2.667h-144.826c-1.471 0-2.667-1.196-2.667-2.667v-30.203zm-147.253 416.873v-395.978c0-11.521 9.373-20.895 20.894-20.895h8.895v383.444c0 12.395 10.083 22.478 22.478 22.478h110.422c4.142 0 7.5-3.357 7.5-7.5s-3.358-7.5-7.5-7.5h-110.423c-4.124 0-7.478-3.354-7.478-7.478v-383.444h48.915v30.203c0 9.741 7.925 17.667 17.667 17.667h144.825c9.742 0 17.667-7.926 17.667-17.667v-30.203h48.915v164.763c0 4.143 3.358 7.5 7.5 7.5s7.5-3.357 7.5-7.5v-164.763h8.895c11.521 0 20.894 9.373 20.894 20.895v184.986c-3.407.43-6.764 1.51-9.875 3.282-8.261-4.653-17.023-8.319-26.119-10.927-1.632-11.205-11.304-19.838-22.955-19.838h-21.488c-11.65 0-21.322 8.633-22.955 19.838-9.096 2.608-17.859 6.274-26.119 10.927-10.386-5.916-23.507-4.264-32.128 4.356l-10.119 10.118c-8.62 8.621-10.273 21.741-4.356 32.128-4.654 8.263-8.32 17.025-10.927 26.118-11.205 1.633-19.838 11.305-19.838 22.955v21.488c0 11.65 8.633 21.322 19.838 22.955 2.607 9.093 6.272 17.855 10.927 26.118-5.917 10.386-4.264 23.507 4.356 32.128l10.118 10.117c8.62 8.621 21.74 10.276 32.128 4.356 8.263 4.654 17.025 8.32 26.119 10.928.245 1.681.69 3.293 1.277 4.838h-244.556c-11.521.001-20.894-9.372-20.894-20.893zm346.671 20.894h-16.376c.586-1.544 1.032-3.157 1.277-4.838 9.094-2.607 17.856-6.273 26.119-10.927 2.593 1.477 5.357 2.482 8.178 3.025-3.21 7.462-10.653 12.74-19.198 12.74zm73.387-111.44c0 4.52-3.678 8.197-8.198 8.197-4.87 0-9.127 3.306-10.353 8.036-2.502 9.64-6.352 18.886-11.443 27.483-2.16 3.649-1.953 8.258.528 11.738 3.345 4.694 2.814 11.062-1.263 15.14l-10.118 10.117c-4.069 4.07-10.444 4.609-15.139 1.264-3.48-2.48-8.087-2.688-11.739-.527-8.597 5.09-17.844 8.939-27.483 11.441-4.732 1.229-8.037 5.486-8.037 10.354 0 4.52-3.677 8.197-8.197 8.197h-21.488c-4.52 0-8.197-3.678-8.197-8.197 0-4.867-3.305-9.125-8.037-10.354-9.639-2.502-18.886-6.352-27.485-11.443-3.639-2.153-8.248-1.958-11.737.529-4.694 3.346-11.062 2.815-15.139-1.264l-10.118-10.117c-4.078-4.078-4.608-10.445-1.264-15.14 2.482-3.482 2.689-8.09.528-11.738-5.09-8.597-8.94-17.843-11.441-27.482-1.228-4.732-5.486-8.037-10.354-8.037-4.52 0-8.197-3.678-8.197-8.197v-21.488c0-4.52 3.678-8.197 8.198-8.197 4.867 0 9.125-3.305 10.353-8.037 2.502-9.64 6.352-18.886 11.441-27.481 2.162-3.649 1.955-8.257-.526-11.739-3.346-4.695-2.814-11.062 1.263-15.14l10.119-10.118c4.077-4.078 10.444-4.608 15.142-1.26 3.481 2.477 8.087 2.685 11.736.524 8.594-5.09 17.84-8.939 27.482-11.441 4.732-1.229 8.037-5.486 8.037-10.354 0-4.52 3.677-8.197 8.197-8.197h21.488c4.52 0 8.197 3.678 8.197 8.197 0 4.867 3.305 9.125 8.037 10.354 9.642 2.502 18.888 6.352 27.485 11.443 3.647 2.157 8.253 1.952 11.737-.529 2.714-1.933 5.985-2.563 9.051-1.971.232.062.468.113.709.153 1.977.511 3.842 1.543 5.38 3.081l10.117 10.116c4.078 4.078 4.609 10.445 1.264 15.141-2.482 3.482-2.689 8.09-.528 11.738 5.09 8.596 8.94 17.843 11.442 27.481 1.227 4.732 5.485 8.038 10.354 8.038 4.52 0 8.197 3.678 8.197 8.197v21.489z"/><path d="m343.845 284.97c-41.773 0-77.711 28.341-87.394 68.92-.962 4.029 1.525 8.075 5.554 9.036 4.027.962 8.074-1.524 9.036-5.554 8.065-33.798 38.003-57.402 72.804-57.402 41.27 0 74.845 33.575 74.845 74.846s-33.575 74.846-74.845 74.846c-35.723 0-66.615-25.401-73.454-60.399-.794-4.066-4.736-6.72-8.799-5.922-4.065.794-6.717 4.733-5.922 8.799 8.212 42.022 45.296 72.522 88.176 72.522 49.541 0 89.845-40.305 89.845-89.846s-40.305-89.846-89.846-89.846z"/></g></g></svg>