<?xml version="1.0" encoding="UTF-8"?>
<svg xmlns="http://www.w3.org/2000/svg" viewBox="0 0 64 64" width="512" height="512"><g id="outline"><path d="M27.707,7.293A1,1,0,0,0,27,7H4V9H6v2H5a1,1,0,0,0-1,1V22a1,1,0,0,0,.294.708L14,32.414V46H12V41a1,1,0,0,0-1-1H7a1,1,0,0,0-1,1v5H3a1,1,0,0,0-1,1v4a1,1,0,0,0,1,1h9.556A3.959,3.959,0,0,0,12,54a4,4,0,0,0,8,0,3.959,3.959,0,0,0-.556-2H37.556A3.959,3.959,0,0,0,37,54a4,4,0,0,0,8,0,3.959,3.959,0,0,0-.556-2h3.142l2.707,2.707a1,1,0,0,0,1.414,0l8-8a1,1,0,0,0,0-1.414L59.414,45l2.293-2.293a1,1,0,0,0,0-1.414ZM54.586,37,53,38.586,50.414,36,52,34.414Zm-4-4L49,34.586,46.414,32,48,30.414Zm-4-4L45,30.586,42.414,28,44,26.414Zm-4-4L41,26.586,38.414,24,40,22.414Zm-4-4L37,22.586,34.414,20,36,18.414Zm-4-4L33,18.586,30.414,16,32,14.414ZM27.274,9.688,30.586,13,29,14.586,26.217,11.8ZM20,9h5.382l-1,2H20Zm0,15.414L41.586,46H28V41a1,1,0,0,0-1-1H20ZM20,42h6v4H20ZM14,9h4v2H14ZM8,9h4v2H8ZM6,13H18v8H6ZM18,23V46H16V23Zm-4,0v1.586L12.414,23ZM7.414,23H9.586L14,27.414v2.172ZM8,42h2v4H8Zm8,14a2,2,0,1,1,2-2A2,2,0,0,1,16,56Zm25,0a2,2,0,1,1,2-2A2,2,0,0,1,41,56ZM4,50V48H43.586l2,2Zm47,2.586-31-31V17h2.586l32,32Zm5-5L23.707,15.293A1,1,0,0,0,23,15H20V13h4.586l33,33Zm2-4L54.414,40,56,38.414,59.586,42Z"/><rect x="8" y="15" width="8" height="2"/></g></svg>
