<?xml version="1.0"?>
<svg xmlns="http://www.w3.org/2000/svg" id="Layer_1" data-name="Layer 1" viewBox="0 0 512 512" width="512" height="512"><path d="M356.113,323.486a22.621,22.621,0,1,0,22.62,22.62A22.647,22.647,0,0,0,356.113,323.486Zm0,33.241a10.621,10.621,0,1,1,10.62-10.621A10.632,10.632,0,0,1,356.113,356.727Z"/><path d="M447.869,323.486a22.621,22.621,0,1,0,22.62,22.62A22.647,22.647,0,0,0,447.869,323.486Zm0,33.241a10.621,10.621,0,1,1,10.62-10.621A10.632,10.632,0,0,1,447.869,356.727Z"/><path d="M500.694,276.163H453.869v-13a10.011,10.011,0,0,0-10-10H361.93a10.011,10.011,0,0,0-10,10v13H225V177.73a6,6,0,0,0-6-6h-1V130.81a6,6,0,0,0-5.35-5.965c-1.581-.175-39.33-3.62-91.593,48.642l.007.007a6.008,6.008,0,0,0-1.092,1.477l-34.558,66.7L38.649,253.5A34.962,34.962,0,0,0,12.2,285.581l-1.5,26.78A6,6,0,0,0,5.31,318.33v31.56A14.006,14.006,0,0,0,19.3,363.88H50.92a6,6,0,0,0,6-6V346.05h.07a48.765,48.765,0,1,1,97.53,0h.09v9.62a10.011,10.011,0,0,0,10,10H238a10.011,10.011,0,0,0,10-10v-10.4h66.984c0,.28-.021.558-.021.84a41.151,41.151,0,1,0,82.3,0c0-.282-.023-.559-.029-.84h9.5c-.006.28-.021.558-.021.84a41.151,41.151,0,1,0,82.3,0c0-.282-.022-.559-.028-.84h11.7a6,6,0,0,0,6-6v-57.1A6,6,0,0,0,500.694,276.163Zm-136.764-11h77.939v11H363.93ZM118.707,203.5H151.76v19.01a11.409,11.409,0,0,1-9.876,11.273l-41.756,5.575Zm-95.1,93.01H36.5v15.82H22.725ZM44.92,351.88H19.3a1.993,1.993,0,0,1-1.99-1.99V324.33H44.92Zm119.69-45.01a10,10,0,0,0-8.645,5,60.7,60.7,0,0,0-101.488,1.641,5.965,5.965,0,0,0-3.557-1.177H48.5V290.51a6,6,0,0,0-6-6H24.349a23,23,0,0,1,17.242-19.373l49.047-12.406,40.195-5.366L154.5,262.67a23.977,23.977,0,0,1,10.958,19.469l.695,24.731Zm-3.6-54.278L148.4,244.437A23.448,23.448,0,0,0,163.76,222.51V197.5a6,6,0,0,0-6-6H124.924l4.025-7.77H172.61a6,6,0,0,0,0-12H140.421c31.371-27.771,55.386-33.571,65.579-34.715V171.73H192.333a6,6,0,0,0,0,12H213V306.87H178.153l-.7-25.07A35.974,35.974,0,0,0,161.009,252.592ZM236,353.67H166.61v-34.8H236Zm148.761-2.2a28.865,28.865,0,0,1-1.157,4.321,5.991,5.991,0,0,0-5.371,9.271,29.247,29.247,0,0,1-3.168,3.168,5.99,5.99,0,0,0-9.271,5.37,28.885,28.885,0,0,1-4.32,1.157,5.992,5.992,0,0,0-10.722,0,28.9,28.9,0,0,1-4.321-1.157,5.991,5.991,0,0,0-9.271-5.37,29.419,29.419,0,0,1-3.167-3.168,5.991,5.991,0,0,0-5.37-9.271,28.868,28.868,0,0,1-1.158-4.321,5.99,5.99,0,0,0,0-10.721,29.068,29.068,0,0,1,1.159-4.327c.117.007.233.022.35.022a6,6,0,0,0,5.019-9.287,29.412,29.412,0,0,1,3.172-3.172,6.024,6.024,0,0,0,3.288.992,6,6,0,0,0,5.978-6.358,28.778,28.778,0,0,1,4.321-1.157,5.992,5.992,0,0,0,10.722,0,28.882,28.882,0,0,1,4.32,1.156,5.979,5.979,0,0,0,9.266,5.366,29.34,29.34,0,0,1,3.173,3.173,6,6,0,0,0,5.02,9.287c.116,0,.233-.015.349-.022a28.827,28.827,0,0,1,1.159,4.327,5.99,5.99,0,0,0,0,10.721Zm91.756,0a28.865,28.865,0,0,1-1.157,4.321,5.991,5.991,0,0,0-5.371,9.271,29.229,29.229,0,0,1-3.167,3.167,5.991,5.991,0,0,0-9.271,5.371,28.9,28.9,0,0,1-4.321,1.157,5.992,5.992,0,0,0-10.722,0,28.84,28.84,0,0,1-4.319-1.157,5.991,5.991,0,0,0-9.273-5.37,29.511,29.511,0,0,1-3.167-3.168,5.991,5.991,0,0,0-5.371-9.271,28.986,28.986,0,0,1-1.157-4.321,5.99,5.99,0,0,0,0-10.721,29.068,29.068,0,0,1,1.159-4.327c.117.007.233.022.35.022a6,6,0,0,0,5.019-9.287,29.43,29.43,0,0,1,3.173-3.173,5.985,5.985,0,0,0,9.267-5.366,28.838,28.838,0,0,1,4.319-1.156,5.992,5.992,0,0,0,10.722,0,28.778,28.778,0,0,1,4.321,1.157,5.98,5.98,0,0,0,9.266,5.366,29.321,29.321,0,0,1,3.172,3.172,6,6,0,0,0,5.02,9.287c.116,0,.233-.015.349-.022a28.827,28.827,0,0,1,1.159,4.327,5.99,5.99,0,0,0,0,10.721Zm18.177-18.2h-7.742a41.013,41.013,0,0,0-3.262-7.376c-.059-.12-.115-.24-.183-.358l-.027-.007a41.127,41.127,0,0,0-74.7,7.741H395.194a41.357,41.357,0,0,0-18.168-22.58c-.111-.074-.219-.15-.336-.217l-.029.007a41.1,41.1,0,0,0-59.636,22.79H248v-16.4a10.011,10.011,0,0,0-10-10H225V288.163H494.694Z"/><path d="M105.757,323.486a22.621,22.621,0,1,0,22.62,22.62A22.647,22.647,0,0,0,105.757,323.486Zm0,33.241a10.621,10.621,0,1,1,10.62-10.621A10.632,10.632,0,0,1,105.757,356.727Z"/><path d="M105.757,304.956a41.151,41.151,0,1,0,41.15,41.15A41.2,41.2,0,0,0,105.757,304.956Zm28.648,46.511a28.986,28.986,0,0,1-1.157,4.321,5.991,5.991,0,0,0-5.371,9.272,29.419,29.419,0,0,1-3.168,3.167,5.99,5.99,0,0,0-9.271,5.37,28.885,28.885,0,0,1-4.32,1.157,5.992,5.992,0,0,0-10.722,0,28.885,28.885,0,0,1-4.32-1.157,5.991,5.991,0,0,0-9.272-5.37,29.41,29.41,0,0,1-3.167-3.167,5.992,5.992,0,0,0-5.371-9.272,28.9,28.9,0,0,1-1.157-4.321,5.991,5.991,0,0,0,0-10.721,28.827,28.827,0,0,1,1.159-4.327c.117.007.233.022.35.022a6,6,0,0,0,5.019-9.288,29.4,29.4,0,0,1,3.172-3.171,5.986,5.986,0,0,0,9.267-5.367,28.882,28.882,0,0,1,4.32-1.156,5.992,5.992,0,0,0,10.722,0,28.882,28.882,0,0,1,4.32,1.156,5.98,5.98,0,0,0,9.267,5.367,29.4,29.4,0,0,1,3.172,3.171,6,6,0,0,0,5.019,9.288c.116,0,.233-.015.35-.022a29.068,29.068,0,0,1,1.159,4.327,5.99,5.99,0,0,0,0,10.721Z"/></svg>
